<svg xmlns="http://www.w3.org/2000/svg" xmlns:xlink="http://www.w3.org/1999/xlink" width="800" zoomAndPan="magnify" viewBox="0 0 600 374.999991" height="500" preserveAspectRatio="xMidYMid meet" version="1.0"><defs><g/><clipPath id="7e0aa4934d"><path d="M 175.328125 126 L 424 126 L 424 300.75 L 175.328125 300.75 Z M 175.328125 126 " clip-rule="nonzero"/></clipPath><clipPath id="4c45f085a0"><path d="M 252 37.5 L 348 37.5 L 348 133 L 252 133 Z M 252 37.5 " clip-rule="nonzero"/></clipPath></defs><rect x="-60" width="720" fill="#ffffff" y="-37.499999" height="449.999989" fill-opacity="1"/><rect x="-60" width="720" fill="#800000" y="-37.499999" height="449.999989" fill-opacity="1"/><path fill="#e1ebf4" d="M 339.132812 85.101562 C 339.132812 106.832031 321.550781 124.421875 299.828125 124.421875 C 278.105469 124.421875 260.519531 106.832031 260.519531 85.101562 C 260.519531 63.371094 278.105469 45.777344 299.828125 45.777344 C 321.550781 45.777344 339.132812 63.371094 339.132812 85.101562 Z M 339.132812 85.101562 " fill-opacity="1" fill-rule="nonzero"/><path fill="#ffffff" d="M 341.203125 85.101562 C 341.203125 64.199219 322.585938 44.949219 302.101562 43.707031 C 301.484375 43.707031 300.65625 43.707031 299.828125 43.707031 C 299 43.707031 298.378906 43.707031 297.550781 43.707031 C 277.070312 44.949219 258.453125 64.199219 258.453125 85.101562 C 258.453125 86.550781 260.519531 87.789062 260.726562 89.238281 C 262.796875 69.578125 279.554688 54.054688 299.828125 54.054688 C 320.101562 54.054688 336.859375 69.578125 338.925781 89.238281 C 339.132812 87.789062 341.203125 86.550781 341.203125 85.101562 Z M 341.203125 85.101562 " fill-opacity="0.5" fill-rule="nonzero"/><path fill="#fc785e" d="M 377.199219 161.261719 L 304.792969 185.476562 L 295.691406 185.886719 L 220.179688 161.054688 C 220.179688 161.054688 237.972656 135.390625 263.003906 126.90625 C 264.660156 128.5625 266.726562 130.011719 268.589844 131.25 C 272.933594 134.148438 277.484375 136.425781 282.449219 138.082031 C 288.035156 139.945312 293.828125 140.773438 299.828125 140.773438 C 305.414062 140.773438 310.792969 139.945312 315.964844 138.496094 C 322.378906 136.632812 328.375 133.527344 333.546875 129.390625 C 333.753906 129.183594 334.167969 128.976562 334.375 128.769531 C 337.066406 129.804688 340.996094 131.664062 345.546875 133.734375 C 357.753906 140.152344 373.683594 149.878906 377.199219 161.261719 Z M 377.199219 161.261719 " fill-opacity="1" fill-rule="nonzero"/><path fill="#f9dbd7" d="M 282.449219 138.289062 L 270.449219 140.980469 C 255.761719 144.289062 242.9375 151.535156 232.59375 161.675781 L 227.007812 159.605469 C 228.867188 157.328125 230.730469 155.257812 232.800781 153.1875 C 240.246094 145.945312 248.9375 140.152344 258.660156 136.21875 L 258.246094 134.355469 L 268.796875 131.25 C 272.933594 134.355469 277.484375 136.632812 282.449219 138.289062 Z M 282.449219 138.289062 " fill-opacity="0.3" fill-rule="nonzero"/><path fill="#f9dbd7" d="M 371.40625 158.15625 L 365.40625 160.226562 C 355.269531 150.707031 342.859375 144.082031 328.996094 140.980469 L 315.757812 138.703125 C 322.171875 136.839844 328.167969 133.734375 333.339844 129.597656 L 345.339844 133.941406 L 342.445312 137.046875 C 350.925781 140.773438 358.582031 145.738281 365.199219 151.949219 C 367.683594 154.015625 369.546875 156.085938 371.40625 158.15625 Z M 371.40625 158.15625 " fill-opacity="0.3" fill-rule="nonzero"/><path fill="#94e1e4" d="M 188.734375 182.785156 L 190.804688 153.1875 L 299.828125 187.128906 L 407.816406 149.257812 L 409.472656 185.476562 C 409.472656 185.476562 420.4375 187.128906 420.851562 194.789062 C 421.265625 202.445312 419.402344 216.519531 411.128906 219.621094 L 409.058594 259.980469 L 405.335938 264.738281 L 299.828125 297.023438 L 192.871094 263.289062 L 188.734375 255.632812 Z M 188.734375 182.785156 " fill-opacity="1" fill-rule="nonzero"/><g clip-path="url(#7e0aa4934d)"><path fill="#2d4356" d="M 413.609375 181.75 L 413.609375 151.328125 C 413.609375 147.601562 411.335938 145.324219 408.230469 145.324219 C 407.402344 145.324219 406.578125 145.53125 405.75 145.738281 L 379.683594 155.050781 C 368.925781 141.601562 354.441406 131.457031 337.480469 126.078125 C 334.996094 128.5625 332.101562 130.835938 329.203125 132.699219 C 345.960938 136.425781 360.648438 145.53125 371.613281 158.15625 L 307.066406 181.335938 C 304.792969 181.957031 301.894531 182.371094 298.792969 182.371094 C 296.105469 182.371094 293.414062 181.957031 291.34375 181.335938 L 227.007812 159.605469 C 238.179688 146.152344 253.28125 136.425781 270.65625 132.492188 C 267.761719 130.632812 264.863281 128.5625 262.175781 126.078125 C 244.382812 131.457031 229.488281 142.425781 218.523438 156.707031 L 193.90625 148.429688 C 193.078125 148.222656 192.25 148.015625 191.628906 148.015625 C 188.527344 148.015625 186.042969 150.292969 186.042969 154.015625 L 186.042969 181.542969 C 179.839844 184.234375 175.699219 189.820312 175.699219 196.648438 L 175.699219 209.273438 C 175.699219 216.105469 179.839844 221.691406 186.042969 224.382812 L 186.042969 257.496094 C 186.042969 262.050781 189.5625 267.015625 193.90625 268.257812 L 291.34375 299.714844 C 293.621094 300.542969 296.515625 300.75 299.414062 300.75 C 302.101562 300.75 305 300.542969 307.066406 299.714844 L 405.542969 269.5 C 409.886719 268.257812 413.402344 263.289062 413.402344 258.738281 L 413.402344 224.382812 C 419.609375 221.691406 423.746094 216.105469 423.746094 209.273438 L 423.746094 196.855469 C 423.953125 190.234375 419.816406 184.441406 413.609375 181.75 Z M 193.285156 217.554688 C 188.113281 217.554688 183.976562 213.828125 183.976562 209.273438 L 183.976562 196.855469 C 183.976562 192.304688 188.113281 188.578125 193.285156 188.578125 C 198.457031 188.578125 202.59375 192.304688 202.59375 196.855469 L 202.59375 209.273438 C 202.59375 213.828125 198.457031 217.554688 193.285156 217.554688 Z M 295.691406 292.265625 C 294.863281 292.265625 294.242188 292.058594 293.828125 291.851562 L 196.386719 260.601562 C 195.5625 260.1875 194.320312 258.53125 194.320312 257.703125 L 194.320312 225.832031 C 203.628906 225.210938 210.871094 218.175781 210.871094 209.273438 L 210.871094 196.855469 C 210.871094 187.957031 203.628906 180.714844 194.320312 180.300781 L 194.320312 157.535156 L 288.65625 189.199219 C 290.933594 190.027344 293.414062 190.441406 295.691406 190.441406 Z M 405.335938 258.945312 C 405.335938 259.773438 404.09375 261.429688 403.265625 261.84375 L 304.792969 292.058594 C 304.585938 292.058594 304.378906 292.265625 303.964844 292.265625 L 303.964844 190.441406 C 306.035156 190.234375 308.101562 189.820312 309.757812 188.992188 L 405.335938 154.84375 L 405.335938 180.300781 C 396.027344 180.921875 388.785156 187.957031 388.785156 196.855469 L 388.785156 209.273438 C 388.785156 218.175781 396.027344 225.417969 405.335938 225.832031 Z M 415.679688 209.273438 C 415.679688 213.828125 411.542969 217.554688 406.371094 217.554688 C 401.199219 217.554688 397.058594 213.828125 397.058594 209.273438 L 397.058594 196.855469 C 397.058594 192.304688 401.199219 188.578125 406.371094 188.578125 C 411.542969 188.578125 415.679688 192.304688 415.679688 196.855469 Z M 415.679688 209.273438 " fill-opacity="1" fill-rule="nonzero"/></g><path fill="#f5ffff" d="M 405.335938 154.84375 L 405.335938 163.125 L 309.757812 197.269531 C 308.101562 197.890625 306.035156 198.304688 303.964844 198.71875 L 303.964844 190.441406 C 306.035156 190.234375 308.101562 189.820312 309.757812 188.992188 Z M 405.335938 154.84375 " fill-opacity="0.3" fill-rule="nonzero"/><path fill="#f5ffff" d="M 295.691406 190.648438 L 295.691406 198.925781 C 293.621094 198.71875 291.136719 198.304688 288.65625 197.683594 L 194.320312 165.8125 L 194.320312 157.535156 L 288.65625 189.199219 C 291.136719 190.027344 293.621094 190.441406 295.691406 190.648438 Z M 295.691406 190.648438 " fill-opacity="0.3" fill-rule="nonzero"/><path fill="#426666" d="M 405.335938 250.667969 L 405.335938 258.945312 C 405.335938 259.773438 404.09375 261.429688 403.265625 261.84375 L 304.792969 292.058594 C 304.585938 292.058594 304.378906 292.265625 303.964844 292.265625 L 303.964844 283.988281 C 304.171875 283.988281 304.585938 283.78125 304.792969 283.78125 L 403.265625 253.5625 C 404.09375 253.355469 405.335938 251.699219 405.335938 250.667969 Z M 405.335938 250.667969 " fill-opacity="0.3" fill-rule="nonzero"/><path fill="#426666" d="M 295.691406 283.988281 L 295.691406 292.265625 C 294.863281 292.265625 294.242188 292.058594 293.828125 291.851562 L 196.386719 260.601562 C 195.355469 260.1875 194.320312 258.53125 194.320312 257.703125 L 194.320312 249.425781 C 194.320312 250.460938 195.5625 252.113281 196.386719 252.320312 L 293.828125 283.78125 C 294.242188 283.78125 294.863281 283.988281 295.691406 283.988281 Z M 295.691406 283.988281 " fill-opacity="0.3" fill-rule="nonzero"/><path fill="#e1ebf4" d="M 415.679688 196.855469 L 415.679688 209.273438 C 415.679688 213.828125 411.542969 217.554688 406.371094 217.554688 C 401.199219 217.554688 397.058594 213.828125 397.058594 209.273438 L 397.058594 196.855469 C 397.058594 192.304688 401.199219 188.578125 406.371094 188.578125 C 411.542969 188.578125 415.679688 192.304688 415.679688 196.855469 Z M 415.679688 196.855469 " fill-opacity="1" fill-rule="nonzero"/><path fill="#e1ebf4" d="M 202.59375 196.855469 L 202.59375 209.273438 C 202.59375 213.828125 198.457031 217.554688 193.285156 217.554688 C 188.113281 217.554688 183.976562 213.828125 183.976562 209.273438 L 183.976562 196.855469 C 183.976562 192.304688 188.113281 188.578125 193.285156 188.578125 C 198.457031 188.578125 202.59375 192.304688 202.59375 196.855469 Z M 202.59375 196.855469 " fill-opacity="1" fill-rule="nonzero"/><path fill="#9fa5aa" d="M 341.203125 85.101562 C 341.203125 106.003906 322.585938 125.25 302.101562 126.492188 C 301.484375 126.492188 300.65625 126.492188 299.828125 126.492188 C 299 126.492188 298.378906 126.492188 297.550781 126.492188 C 277.070312 125.25 258.453125 106.003906 258.453125 85.101562 C 258.453125 83.652344 260.519531 82.410156 260.726562 80.960938 C 262.796875 100.621094 279.554688 116.144531 299.828125 116.144531 C 320.101562 116.144531 336.859375 100.621094 338.925781 80.960938 C 339.132812 82.410156 341.203125 83.652344 341.203125 85.101562 Z M 341.203125 85.101562 " fill-opacity="0.5" fill-rule="nonzero"/><path fill="#9fa5aa" d="M 415.679688 200.996094 L 415.679688 209.273438 C 415.679688 213.828125 411.542969 217.554688 406.371094 217.554688 C 405.957031 217.554688 405.75 217.554688 405.335938 217.554688 C 400.578125 217.140625 397.058594 213.621094 397.058594 209.273438 L 397.058594 200.996094 C 397.058594 205.550781 401.199219 209.273438 406.371094 209.273438 C 411.542969 209.273438 415.679688 205.550781 415.679688 200.996094 Z M 415.679688 200.996094 " fill-opacity="0.5" fill-rule="nonzero"/><path fill="#9fa5aa" d="M 202.59375 200.996094 L 202.59375 209.273438 C 202.59375 213.621094 198.871094 217.140625 194.320312 217.554688 C 193.90625 217.554688 193.699219 217.554688 193.285156 217.554688 C 188.113281 217.554688 183.976562 213.828125 183.976562 209.273438 L 183.976562 200.996094 C 183.976562 205.550781 188.113281 209.273438 193.285156 209.273438 C 198.457031 209.273438 202.59375 205.550781 202.59375 200.996094 Z M 202.59375 200.996094 " fill-opacity="0.5" fill-rule="nonzero"/><g clip-path="url(#4c45f085a0)"><path fill="#2d4356" d="M 299.828125 37.5 C 273.554688 37.5 252.246094 58.816406 252.246094 85.101562 C 252.246094 111.382812 273.554688 132.699219 299.828125 132.699219 C 326.101562 132.699219 347.410156 111.382812 347.410156 85.101562 C 347.410156 58.816406 326.101562 37.5 299.828125 37.5 Z M 299.828125 124.421875 C 278.105469 124.421875 260.519531 106.832031 260.519531 85.101562 C 260.519531 63.371094 278.105469 45.777344 299.828125 45.777344 C 321.550781 45.777344 339.132812 63.371094 339.132812 85.101562 C 339.132812 106.832031 321.550781 124.421875 299.828125 124.421875 Z M 299.828125 124.421875 " fill-opacity="1" fill-rule="nonzero"/></g><g fill="#ffffff" fill-opacity="1"><g transform="translate(192.239123, 344.278817)"><g><path d="M 1.691406 -0.800781 L 1.847656 -0.222656 L 2.269531 0 L 2.714844 0.0429688 L 3.648438 -0.0234375 L 4.515625 0.0234375 L 5.359375 -0.0234375 L 5.785156 0.0429688 L 6.273438 0 L 10.675781 0.0234375 L 11.101562 -0.199219 L 11.34375 -0.890625 L 11.324219 -2.691406 L 11.121094 -3.359375 L 10.722656 -3.625 L 10.253906 -3.582031 L 9.832031 -3.492188 L 9.363281 -3.558594 L 8.453125 -3.535156 L 8.007812 -3.625 L 7.609375 -3.558594 L 6.742188 -3.605469 L 6.273438 -3.558594 L 5.828125 -3.738281 L 5.648438 -4.183594 L 5.671875 -11.722656 L 5.628906 -12.257812 L 5.671875 -13.148438 L 5.605469 -14.414062 L 5.628906 -14.835938 L 5.40625 -15.328125 L 4.960938 -15.59375 L 4.09375 -15.59375 L 3.648438 -15.503906 L 2.757812 -15.59375 L 2.335938 -15.527344 L 1.867188 -15.347656 L 1.667969 -14.859375 L 1.667969 -11.746094 L 1.625 -11.324219 L 1.667969 -10.878906 L 1.601562 -10.054688 L 1.625 -9.566406 L 1.667969 -9.144531 Z M 1.691406 -0.800781 "/></g></g></g><g fill="#ffffff" fill-opacity="1"><g transform="translate(204.205955, 344.278817)"><g><path d="M 1.601562 -0.644531 L 1.890625 -0.222656 L 2.3125 0.0234375 L 7.339844 -0.0234375 L 7.742188 0.0429688 L 9.097656 -0.0234375 L 10.457031 0.0664062 L 10.878906 0.0234375 L 11.34375 -0.199219 L 11.546875 -0.621094 L 11.589844 -1.046875 L 11.566406 -2.425781 L 11.613281 -2.847656 L 11.324219 -3.292969 L 10.65625 -3.515625 L 7.71875 -3.558594 L 7.296875 -3.492188 L 6.808594 -3.535156 L 6.316406 -3.492188 L 5.851562 -3.757812 L 5.648438 -4.449219 L 5.671875 -5.539062 L 5.871094 -6.007812 L 6.273438 -6.25 L 7.140625 -6.25 L 7.585938 -6.296875 L 8.765625 -6.230469 L 9.363281 -6.273438 L 9.832031 -6.230469 L 10.234375 -6.25 L 10.675781 -6.496094 L 10.898438 -6.917969 L 10.945312 -8.675781 L 10.898438 -9.121094 L 10.699219 -9.542969 L 10.320312 -9.789062 L 9.433594 -9.808594 L 8.988281 -9.765625 L 8.519531 -9.765625 L 8.007812 -9.808594 L 6.25 -9.789062 L 5.871094 -10.03125 L 5.605469 -10.433594 L 5.5625 -11.121094 L 5.785156 -11.769531 L 6.472656 -11.96875 L 10.746094 -11.988281 L 11.210938 -12.234375 L 11.457031 -12.636719 L 11.410156 -13.546875 L 11.34375 -13.96875 L 11.367188 -14.460938 L 11.433594 -14.882812 L 11.210938 -15.328125 L 10.746094 -15.527344 L 8.964844 -15.550781 L 8.5625 -15.503906 L 8.121094 -15.570312 L 7.140625 -15.527344 L 6.695312 -15.570312 L 5.828125 -15.550781 L 5.429688 -15.59375 L 2.515625 -15.527344 L 1.867188 -15.371094 L 1.644531 -14.882812 L 1.691406 -13.992188 L 1.601562 -13.347656 L 1.691406 -12.210938 L 1.644531 -11.746094 L 1.691406 -11.34375 L 1.691406 -7.363281 L 1.625 -6.894531 L 1.691406 -6.027344 L 1.644531 -5.136719 L 1.710938 -4.671875 L 1.667969 -4.183594 L 1.691406 -3.757812 L 1.625 -3.359375 L 1.667969 -2.847656 L 1.667969 -2.402344 L 1.710938 -1.535156 L 1.691406 -1.089844 Z M 1.601562 -0.644531 "/></g></g></g><g fill="#ffffff" fill-opacity="1"><g transform="translate(216.951301, 344.278817)"><g><path d="M 0.289062 -0.601562 L 0.402344 -0.132812 L 0.84375 -0.0234375 L 2.804688 -0.0234375 L 3.382812 0.0429688 L 3.894531 -0.179688 L 4.292969 -0.578125 L 4.671875 -1.335938 L 5.050781 -1.757812 L 5.582031 -1.980469 L 6.027344 -1.933594 L 7.273438 -1.957031 L 7.742188 -1.890625 L 8.253906 -1.957031 L 8.652344 -1.957031 L 9.121094 -1.914062 L 10.164062 -1.957031 L 10.898438 -1.710938 L 11.367188 -1.355469 L 11.476562 -0.957031 L 11.722656 -0.554688 L 12.101562 -0.199219 L 12.679688 0.0234375 L 13.082031 -0.0234375 L 13.859375 0.0429688 L 15.238281 0 L 15.636719 -0.132812 L 15.726562 -0.601562 L 15.59375 -1.15625 L 15.4375 -1.558594 L 15.148438 -1.933594 L 15.015625 -2.378906 L 14.792969 -2.714844 L 14.660156 -3.136719 L 14.28125 -3.9375 L 14.125 -4.359375 L 13.902344 -4.738281 L 13.589844 -5.5625 L 13.347656 -5.917969 L 13.167969 -6.363281 L 12.96875 -6.742188 L 12.8125 -7.183594 L 12.613281 -7.519531 L 12.480469 -7.964844 L 12.234375 -8.363281 L 12.058594 -8.742188 L 11.835938 -9.121094 L 11.722656 -9.542969 L 11.277344 -10.320312 L 11.144531 -10.746094 L 10.746094 -11.589844 L 10.632812 -11.945312 L 10.300781 -12.722656 L 9.855469 -13.546875 L 9.5 -14.390625 L 9.296875 -14.726562 L 9.164062 -15.148438 L 8.765625 -15.570312 L 8.007812 -15.773438 L 7.296875 -15.550781 L 6.875 -15.148438 L 6.742188 -14.75 L 5.785156 -12.746094 L 5.539062 -12.347656 L 4.292969 -9.542969 L 4.183594 -9.164062 L 3.9375 -8.765625 L 3.582031 -7.964844 L 3.246094 -7.386719 L 3.09375 -6.960938 L 2.78125 -6.382812 L 2.648438 -5.917969 L 2.445312 -5.5625 L 2.292969 -5.117188 L 1.667969 -3.960938 L 1.023438 -2.335938 L 0.757812 -1.980469 L 0.554688 -1.535156 Z M 7.164062 -5.496094 L 6.742188 -5.671875 L 6.671875 -6.117188 L 7.5625 -8.140625 L 7.761719 -8.496094 L 8.050781 -8.71875 L 8.320312 -8.542969 L 8.609375 -7.675781 L 8.855469 -7.296875 L 8.941406 -6.941406 L 9.164062 -6.496094 L 9.320312 -6.09375 L 9.277344 -5.695312 L 8.898438 -5.515625 Z M 7.164062 -5.496094 "/></g></g></g><g fill="#ffffff" fill-opacity="1"><g transform="translate(233.099851, 344.278817)"><g><path d="M 1.710938 -0.710938 L 1.867188 -0.222656 L 2.3125 0 L 2.734375 0.0234375 L 3.648438 -0.0429688 L 4.117188 0 L 4.78125 0 L 5.472656 -0.222656 L 5.628906 -0.644531 L 5.671875 -1.113281 L 5.582031 -1.578125 L 5.648438 -2.535156 L 5.605469 -3.914062 L 5.804688 -4.359375 L 6.25 -4.582031 L 6.652344 -4.582031 L 7.050781 -4.605469 L 7.609375 -4.425781 L 7.964844 -4.046875 L 8.542969 -3.269531 L 8.699219 -2.847656 L 9.320312 -1.734375 L 9.609375 -1.3125 L 9.808594 -0.933594 L 10.078125 -0.578125 L 10.523438 -0.179688 L 11.078125 -0.0429688 L 11.878906 0 L 12.367188 -0.0429688 L 12.8125 0 L 13.703125 0 L 14.191406 -0.0429688 L 14.660156 -0.15625 L 14.75 -0.621094 L 14.460938 -1.179688 L 13.746094 -2.269531 L 13.546875 -2.648438 L 13.28125 -3.046875 L 13.058594 -3.449219 L 12.769531 -3.804688 L 12.101562 -4.960938 L 12.035156 -5.496094 L 12.277344 -5.960938 L 12.902344 -6.5625 L 13.167969 -6.941406 L 13.324219 -7.363281 L 13.570312 -7.761719 L 13.726562 -8.140625 L 13.96875 -8.988281 L 13.992188 -10.746094 L 13.882812 -11.167969 L 13.8125 -11.589844 L 13.703125 -12.035156 L 13.101562 -13.257812 L 12.789062 -13.589844 L 12.589844 -13.925781 L 11.476562 -14.769531 L 10.699219 -15.171875 L 8.855469 -15.550781 L 8.296875 -15.59375 L 7.652344 -15.570312 L 7.164062 -15.59375 L 6.71875 -15.550781 L 6.230469 -15.59375 L 5.851562 -15.550781 L 4.515625 -15.59375 L 4.09375 -15.527344 L 3.179688 -15.617188 L 2.757812 -15.550781 L 2.269531 -15.570312 L 1.847656 -15.371094 L 1.667969 -14.902344 L 1.601562 -8.675781 L 1.667969 -8.03125 L 1.667969 -6.917969 L 1.625 -6.449219 L 1.601562 -5.605469 L 1.667969 -5.117188 L 1.601562 -4.203125 L 1.691406 -2.914062 L 1.644531 -2.445312 Z M 6.25 -8.1875 L 5.871094 -8.386719 L 5.648438 -8.855469 L 5.582031 -11.34375 L 5.851562 -11.789062 L 6.296875 -12.011719 L 6.652344 -12.035156 L 7.875 -12.011719 L 8.898438 -11.878906 L 9.585938 -11.457031 L 9.808594 -11.121094 L 9.964844 -10.765625 L 10.011719 -10.121094 L 9.945312 -9.519531 L 9.765625 -9.074219 L 9.519531 -8.699219 L 9.253906 -8.429688 L 8.921875 -8.273438 L 7.183594 -8.121094 L 6.742188 -8.1875 Z M 6.25 -8.1875 "/></g></g></g><g fill="#ffffff" fill-opacity="1"><g transform="translate(248.514381, 344.278817)"><g><path d="M 13.125 -0.355469 L 13.769531 -0.0664062 L 14.347656 0.109375 L 14.859375 -0.132812 L 15.058594 -0.601562 L 15.171875 -6.652344 L 15.082031 -7.273438 L 15.125 -7.761719 L 15.039062 -10.433594 L 15.105469 -11.324219 L 15.058594 -11.746094 L 15.058594 -12.636719 L 15.148438 -13.082031 L 15.105469 -13.746094 L 15.148438 -14.902344 L 14.882812 -15.304688 L 14.390625 -15.527344 L 13.949219 -15.570312 L 13.523438 -15.570312 L 13.035156 -15.527344 L 12.570312 -15.59375 L 12.167969 -15.550781 L 11.722656 -15.570312 L 11.1875 -15.347656 L 10.96875 -14.882812 L 10.945312 -10.832031 L 11.035156 -10.367188 L 11.035156 -9.945312 L 10.945312 -9.476562 L 10.96875 -8.585938 L 10.855469 -8.230469 L 10.542969 -8.320312 L 9.566406 -9.320312 L 9.230469 -9.585938 L 8.453125 -10.386719 L 8.097656 -10.65625 L 7.851562 -10.96875 L 7.386719 -11.457031 L 6.695312 -12.035156 L 6.449219 -12.367188 L 6.027344 -12.65625 L 5.804688 -12.992188 L 5.429688 -13.257812 L 5.136719 -13.636719 L 3.9375 -14.859375 L 3.046875 -15.460938 L 2.445312 -15.636719 L 1.914062 -15.371094 L 1.625 -14.949219 L 1.667969 -11.835938 L 1.625 -11.390625 L 1.691406 -10.476562 L 1.644531 -10.078125 L 1.667969 -9.609375 L 1.601562 -9.144531 L 1.691406 -5.960938 L 1.644531 -5.5625 L 1.644531 -5.136719 L 1.601562 -4.648438 L 1.601562 -4.226562 L 1.667969 -3.757812 L 1.644531 -2.847656 L 1.691406 -2.402344 L 1.625 -1.558594 L 1.691406 -1.113281 L 1.691406 -0.691406 L 1.890625 -0.199219 L 2.3125 0.0429688 L 3.070312 0 L 4.183594 0.0664062 L 4.648438 0 L 5.160156 0.0429688 L 5.605469 -0.179688 L 5.804688 -0.621094 L 5.738281 -1.066406 L 5.804688 -6.519531 L 5.71875 -6.984375 L 5.9375 -7.25 L 6.230469 -7.183594 L 9.410156 -4.070312 L 9.765625 -3.78125 L 11.921875 -1.625 L 12.210938 -1.269531 L 12.570312 -0.980469 L 12.835938 -0.644531 Z M 13.125 -0.355469 "/></g></g></g><g fill="#ffffff" fill-opacity="1"><g transform="translate(265.285734, 344.278817)"><g><path d="M 1.601562 -0.644531 L 1.890625 -0.222656 L 2.3125 0.0234375 L 7.339844 -0.0234375 L 7.742188 0.0429688 L 9.097656 -0.0234375 L 10.457031 0.0664062 L 10.878906 0.0234375 L 11.34375 -0.199219 L 11.546875 -0.621094 L 11.589844 -1.046875 L 11.566406 -2.425781 L 11.613281 -2.847656 L 11.324219 -3.292969 L 10.65625 -3.515625 L 7.71875 -3.558594 L 7.296875 -3.492188 L 6.808594 -3.535156 L 6.316406 -3.492188 L 5.851562 -3.757812 L 5.648438 -4.449219 L 5.671875 -5.539062 L 5.871094 -6.007812 L 6.273438 -6.25 L 7.140625 -6.25 L 7.585938 -6.296875 L 8.765625 -6.230469 L 9.363281 -6.273438 L 9.832031 -6.230469 L 10.234375 -6.25 L 10.675781 -6.496094 L 10.898438 -6.917969 L 10.945312 -8.675781 L 10.898438 -9.121094 L 10.699219 -9.542969 L 10.320312 -9.789062 L 9.433594 -9.808594 L 8.988281 -9.765625 L 8.519531 -9.765625 L 8.007812 -9.808594 L 6.25 -9.789062 L 5.871094 -10.03125 L 5.605469 -10.433594 L 5.5625 -11.121094 L 5.785156 -11.769531 L 6.472656 -11.96875 L 10.746094 -11.988281 L 11.210938 -12.234375 L 11.457031 -12.636719 L 11.410156 -13.546875 L 11.34375 -13.96875 L 11.367188 -14.460938 L 11.433594 -14.882812 L 11.210938 -15.328125 L 10.746094 -15.527344 L 8.964844 -15.550781 L 8.5625 -15.503906 L 8.121094 -15.570312 L 7.140625 -15.527344 L 6.695312 -15.570312 L 5.828125 -15.550781 L 5.429688 -15.59375 L 2.515625 -15.527344 L 1.867188 -15.371094 L 1.644531 -14.882812 L 1.691406 -13.992188 L 1.601562 -13.347656 L 1.691406 -12.210938 L 1.644531 -11.746094 L 1.691406 -11.34375 L 1.691406 -7.363281 L 1.625 -6.894531 L 1.691406 -6.027344 L 1.644531 -5.136719 L 1.710938 -4.671875 L 1.667969 -4.183594 L 1.691406 -3.757812 L 1.625 -3.359375 L 1.667969 -2.847656 L 1.667969 -2.402344 L 1.710938 -1.535156 L 1.691406 -1.089844 Z M 1.601562 -0.644531 "/></g></g></g><g fill="#ffffff" fill-opacity="1"><g transform="translate(278.03108, 344.278817)"><g><path d="M 1.710938 -0.710938 L 1.867188 -0.222656 L 2.3125 0 L 2.734375 0.0234375 L 3.648438 -0.0429688 L 4.117188 0 L 4.78125 0 L 5.472656 -0.222656 L 5.628906 -0.644531 L 5.671875 -1.113281 L 5.582031 -1.578125 L 5.648438 -2.535156 L 5.605469 -3.914062 L 5.804688 -4.359375 L 6.25 -4.582031 L 6.652344 -4.582031 L 7.050781 -4.605469 L 7.609375 -4.425781 L 7.964844 -4.046875 L 8.542969 -3.269531 L 8.699219 -2.847656 L 9.320312 -1.734375 L 9.609375 -1.3125 L 9.808594 -0.933594 L 10.078125 -0.578125 L 10.523438 -0.179688 L 11.078125 -0.0429688 L 11.878906 0 L 12.367188 -0.0429688 L 12.8125 0 L 13.703125 0 L 14.191406 -0.0429688 L 14.660156 -0.15625 L 14.75 -0.621094 L 14.460938 -1.179688 L 13.746094 -2.269531 L 13.546875 -2.648438 L 13.28125 -3.046875 L 13.058594 -3.449219 L 12.769531 -3.804688 L 12.101562 -4.960938 L 12.035156 -5.496094 L 12.277344 -5.960938 L 12.902344 -6.5625 L 13.167969 -6.941406 L 13.324219 -7.363281 L 13.570312 -7.761719 L 13.726562 -8.140625 L 13.96875 -8.988281 L 13.992188 -10.746094 L 13.882812 -11.167969 L 13.8125 -11.589844 L 13.703125 -12.035156 L 13.101562 -13.257812 L 12.789062 -13.589844 L 12.589844 -13.925781 L 11.476562 -14.769531 L 10.699219 -15.171875 L 8.855469 -15.550781 L 8.296875 -15.59375 L 7.652344 -15.570312 L 7.164062 -15.59375 L 6.71875 -15.550781 L 6.230469 -15.59375 L 5.851562 -15.550781 L 4.515625 -15.59375 L 4.09375 -15.527344 L 3.179688 -15.617188 L 2.757812 -15.550781 L 2.269531 -15.570312 L 1.847656 -15.371094 L 1.667969 -14.902344 L 1.601562 -8.675781 L 1.667969 -8.03125 L 1.667969 -6.917969 L 1.625 -6.449219 L 1.601562 -5.605469 L 1.667969 -5.117188 L 1.601562 -4.203125 L 1.691406 -2.914062 L 1.644531 -2.445312 Z M 6.25 -8.1875 L 5.871094 -8.386719 L 5.648438 -8.855469 L 5.582031 -11.34375 L 5.851562 -11.789062 L 6.296875 -12.011719 L 6.652344 -12.035156 L 7.875 -12.011719 L 8.898438 -11.878906 L 9.585938 -11.457031 L 9.808594 -11.121094 L 9.964844 -10.765625 L 10.011719 -10.121094 L 9.945312 -9.519531 L 9.765625 -9.074219 L 9.519531 -8.699219 L 9.253906 -8.429688 L 8.921875 -8.273438 L 7.183594 -8.121094 L 6.742188 -8.1875 Z M 6.25 -8.1875 "/></g></g></g><g fill="#ffffff" fill-opacity="1"><g transform="translate(293.44561, 344.278817)"><g><path d="M 6.449219 0.179688 L 7.097656 0.246094 L 7.808594 0.222656 L 9.988281 -0.199219 L 11.144531 -0.824219 L 11.855469 -1.3125 L 12.480469 -2.023438 L 12.925781 -2.734375 L 13.101562 -3.136719 L 13.234375 -3.582031 L 13.300781 -3.980469 L 13.324219 -5.359375 L 13.257812 -5.804688 L 13.148438 -6.230469 L 12.703125 -7.050781 L 12.167969 -7.742188 L 11.789062 -8.050781 L 10.609375 -8.585938 L 8.785156 -9.03125 L 6.539062 -9.320312 L 5.605469 -9.65625 L 5.273438 -9.832031 L 4.917969 -10.1875 L 4.894531 -10.789062 L 4.960938 -11.367188 L 5.207031 -11.679688 L 5.582031 -11.96875 L 5.894531 -12.101562 L 6.296875 -12.191406 L 7.71875 -12.234375 L 8.207031 -12.058594 L 8.542969 -11.789062 L 9.277344 -11.011719 L 9.964844 -10.789062 L 11.433594 -10.746094 L 11.835938 -10.789062 L 12.257812 -10.746094 L 12.679688 -11.011719 L 12.878906 -11.433594 L 12.703125 -12.300781 L 12.347656 -13.101562 L 12.058594 -13.457031 L 11.835938 -13.8125 L 11.546875 -14.148438 L 10.121094 -15.125 L 8.898438 -15.550781 L 8.429688 -15.636719 L 8.03125 -15.683594 L 7.542969 -15.792969 L 6.296875 -15.773438 L 4.539062 -15.414062 L 4.136719 -15.261719 L 3.78125 -15.039062 L 3.425781 -14.902344 L 2.980469 -14.636719 L 2.667969 -14.347656 L 2.269531 -14.082031 L 2.023438 -13.703125 L 1.734375 -13.414062 L 1.578125 -13.011719 L 1.355469 -12.65625 L 1.046875 -11.367188 L 1.066406 -9.875 L 1.222656 -9.253906 L 1.511719 -8.476562 L 2.070312 -7.742188 L 2.691406 -7.164062 L 3.46875 -6.695312 L 4.738281 -6.273438 L 5.539062 -6.09375 L 7.363281 -5.960938 L 7.761719 -5.894531 L 8.207031 -5.871094 L 9.007812 -5.539062 L 9.320312 -5.273438 L 9.433594 -4.695312 L 9.296875 -4.117188 L 8.941406 -3.804688 L 8.585938 -3.605469 L 7.761719 -3.359375 L 7.140625 -3.335938 L 6.472656 -3.382812 L 5.960938 -3.515625 L 5.628906 -3.671875 L 5.226562 -3.914062 L 4.894531 -4.226562 L 4.558594 -4.671875 L 4.117188 -4.847656 L 2.425781 -4.894531 L 1.980469 -4.847656 L 1.535156 -4.871094 L 1.089844 -4.671875 L 0.933594 -4.203125 L 0.980469 -3.714844 L 1.066406 -3.316406 L 1.421875 -2.425781 L 1.980469 -1.734375 L 2.625 -1.089844 L 3.003906 -0.84375 L 4.605469 -0.109375 L 5.09375 -0.0429688 L 5.515625 0.109375 Z M 6.449219 0.179688 "/></g></g></g><g fill="#ffffff" fill-opacity="1"><g transform="translate(307.63675, 344.278817)"><g><path d="M 1.800781 -10.164062 L 1.980469 -9.921875 L 2.246094 -9.921875 L 2.515625 -9.875 L 3.382812 -9.898438 L 3.648438 -9.875 L 4.046875 -10.144531 L 4.425781 -11.5 L 4.582031 -11.746094 L 4.671875 -11.988281 L 4.695312 -12.234375 L 4.847656 -12.546875 L 5.050781 -13.300781 L 5.09375 -13.859375 L 5.050781 -14.125 L 4.828125 -14.636719 L 4.539062 -15.058594 L 4.316406 -15.238281 L 4.09375 -15.328125 L 3.871094 -15.503906 L 3.09375 -15.683594 L 2.558594 -15.683594 L 2.292969 -15.617188 L 2.070312 -15.570312 L 1.601562 -15.347656 L 1.378906 -15.214844 L 1.023438 -14.835938 L 0.890625 -14.613281 L 0.800781 -14.371094 L 0.691406 -13.882812 L 0.644531 -13.324219 L 0.757812 -13.058594 L 0.800781 -12.835938 L 1.089844 -12.347656 L 1.246094 -12.144531 L 1.492188 -11.96875 L 1.757812 -11.835938 L 1.980469 -11.746094 L 2.15625 -11.433594 L 2.046875 -11.144531 L 1.957031 -10.632812 L 1.824219 -10.433594 Z M 1.800781 -10.164062 "/></g></g></g><g fill="#ffffff" fill-opacity="1"><g transform="translate(313.264279, 344.278817)"><g/></g></g><g fill="#ffffff" fill-opacity="1"><g transform="translate(319.292173, 344.278817)"><g><path d="M 2.980469 0.0664062 L 4.070312 0.0234375 L 4.472656 0.0429688 L 4.984375 0 L 5.449219 -0.179688 L 5.648438 -0.644531 L 5.628906 -1.089844 L 5.648438 -1.578125 L 5.605469 -2.402344 L 5.648438 -2.824219 L 5.628906 -3.335938 L 5.828125 -3.738281 L 6.339844 -3.980469 L 6.828125 -4.027344 L 7.296875 -3.9375 L 9.585938 -4.117188 L 11.699219 -4.960938 L 12.035156 -5.226562 L 12.347656 -5.582031 L 12.636719 -5.871094 L 12.925781 -6.207031 L 13.390625 -6.917969 L 13.769531 -7.785156 L 13.835938 -8.273438 L 13.96875 -8.632812 L 14.015625 -10.457031 L 13.925781 -10.832031 L 13.859375 -11.324219 L 13.589844 -12.144531 L 13.167969 -12.902344 L 12.636719 -13.636719 L 11.632812 -14.503906 L 10.898438 -14.992188 L 10.011719 -15.261719 L 9.632812 -15.414062 L 9.1875 -15.414062 L 8.742188 -15.570312 L 8.074219 -15.59375 L 7.363281 -15.570312 L 6.875 -15.503906 L 5.515625 -15.527344 L 5.070312 -15.59375 L 3.691406 -15.503906 L 3.203125 -15.527344 L 2.804688 -15.59375 L 2.335938 -15.503906 L 1.867188 -15.261719 L 1.667969 -14.902344 L 1.691406 -12.210938 L 1.601562 -11.324219 L 1.644531 -10.898438 L 1.625 -5.136719 L 1.667969 -4.714844 L 1.644531 -0.601562 L 1.890625 -0.179688 L 2.582031 0.0429688 Z M 6.316406 -7.542969 L 5.871094 -7.808594 L 5.671875 -8.1875 L 5.605469 -9.988281 L 5.648438 -10.457031 L 5.648438 -11.367188 L 5.871094 -11.789062 L 6.339844 -12.011719 L 8.652344 -11.945312 L 9.097656 -11.746094 L 9.453125 -11.5 L 9.742188 -11.210938 L 9.964844 -10.765625 L 10.03125 -10.367188 L 10.078125 -9.742188 L 10.03125 -9.144531 L 9.875 -8.742188 L 9.675781 -8.386719 L 9.386719 -8.03125 L 9.03125 -7.761719 L 8.675781 -7.652344 L 7.984375 -7.5625 L 6.851562 -7.585938 Z M 6.316406 -7.542969 "/></g></g></g><g fill="#ffffff" fill-opacity="1"><g transform="translate(333.928188, 344.278817)"><g><path d="M 8.320312 0.265625 L 9.566406 0.246094 L 10.898438 0.0664062 L 12.570312 -0.488281 L 13.300781 -0.890625 L 13.636719 -1.15625 L 14.058594 -1.355469 L 14.683594 -1.890625 L 14.972656 -2.292969 L 15.28125 -2.601562 L 16.261719 -4.09375 L 16.59375 -4.9375 L 16.773438 -5.785156 L 16.796875 -6.183594 L 16.90625 -6.628906 L 16.929688 -7.097656 L 17.015625 -7.742188 L 16.949219 -8.855469 L 16.796875 -9.765625 L 16.238281 -11.433594 L 15.816406 -12.257812 L 15.328125 -12.925781 L 14.703125 -13.613281 L 14.058594 -14.171875 L 13.546875 -14.527344 L 12.878906 -14.816406 L 12.546875 -15.058594 L 10.832031 -15.59375 L 9.542969 -15.816406 L 8.941406 -15.839844 L 6.585938 -15.503906 L 4.917969 -14.882812 L 4.582031 -14.636719 L 4.183594 -14.4375 L 3.425781 -13.882812 L 2.335938 -12.613281 L 1.644531 -11.433594 L 1.3125 -10.589844 L 0.933594 -8.875 L 0.867188 -7.074219 L 0.933594 -6.605469 L 1.046875 -6.207031 L 1.089844 -5.785156 L 1.289062 -4.9375 L 2.3125 -2.914062 L 2.582031 -2.648438 L 2.871094 -2.292969 L 3.203125 -1.980469 L 3.449219 -1.691406 L 4.183594 -1.113281 L 5.917969 -0.222656 L 6.5625 0 L 7.050781 0.0429688 L 7.851562 0.222656 Z M 9.566406 -3.671875 L 8.34375 -3.671875 L 7.851562 -3.738281 L 7.050781 -4.070312 L 6.695312 -4.269531 L 6.09375 -4.761719 L 5.804688 -5.070312 L 5.496094 -5.496094 L 5.382812 -5.851562 L 5.183594 -6.25 L 5.003906 -7.074219 L 5.003906 -8.429688 L 5.117188 -8.832031 L 5.183594 -9.253906 L 5.359375 -9.65625 L 5.496094 -10.054688 L 6.027344 -10.765625 L 7.140625 -11.523438 L 7.429688 -11.632812 L 8.296875 -11.855469 L 8.921875 -11.902344 L 9.988281 -11.769531 L 10.386719 -11.679688 L 10.789062 -11.5 L 11.476562 -11.011719 L 12.347656 -10.097656 L 12.613281 -9.253906 L 12.8125 -8.832031 L 12.878906 -8.429688 L 12.835938 -7.074219 L 12.65625 -6.25 L 12.5 -5.851562 L 12.257812 -5.449219 L 12.125 -5.117188 L 11.8125 -4.761719 L 10.746094 -4.027344 L 10.34375 -3.914062 L 10.011719 -3.757812 Z M 9.566406 -3.671875 "/></g></g></g><g fill="#ffffff" fill-opacity="1"><g transform="translate(351.767218, 344.278817)"><g><path d="M 1.710938 -0.710938 L 1.867188 -0.222656 L 2.3125 0 L 2.734375 0.0234375 L 3.648438 -0.0429688 L 4.117188 0 L 4.78125 0 L 5.472656 -0.222656 L 5.628906 -0.644531 L 5.671875 -1.113281 L 5.582031 -1.578125 L 5.648438 -2.535156 L 5.605469 -3.914062 L 5.804688 -4.359375 L 6.25 -4.582031 L 6.652344 -4.582031 L 7.050781 -4.605469 L 7.609375 -4.425781 L 7.964844 -4.046875 L 8.542969 -3.269531 L 8.699219 -2.847656 L 9.320312 -1.734375 L 9.609375 -1.3125 L 9.808594 -0.933594 L 10.078125 -0.578125 L 10.523438 -0.179688 L 11.078125 -0.0429688 L 11.878906 0 L 12.367188 -0.0429688 L 12.8125 0 L 13.703125 0 L 14.191406 -0.0429688 L 14.660156 -0.15625 L 14.75 -0.621094 L 14.460938 -1.179688 L 13.746094 -2.269531 L 13.546875 -2.648438 L 13.28125 -3.046875 L 13.058594 -3.449219 L 12.769531 -3.804688 L 12.101562 -4.960938 L 12.035156 -5.496094 L 12.277344 -5.960938 L 12.902344 -6.5625 L 13.167969 -6.941406 L 13.324219 -7.363281 L 13.570312 -7.761719 L 13.726562 -8.140625 L 13.96875 -8.988281 L 13.992188 -10.746094 L 13.882812 -11.167969 L 13.8125 -11.589844 L 13.703125 -12.035156 L 13.101562 -13.257812 L 12.789062 -13.589844 L 12.589844 -13.925781 L 11.476562 -14.769531 L 10.699219 -15.171875 L 8.855469 -15.550781 L 8.296875 -15.59375 L 7.652344 -15.570312 L 7.164062 -15.59375 L 6.71875 -15.550781 L 6.230469 -15.59375 L 5.851562 -15.550781 L 4.515625 -15.59375 L 4.09375 -15.527344 L 3.179688 -15.617188 L 2.757812 -15.550781 L 2.269531 -15.570312 L 1.847656 -15.371094 L 1.667969 -14.902344 L 1.601562 -8.675781 L 1.667969 -8.03125 L 1.667969 -6.917969 L 1.625 -6.449219 L 1.601562 -5.605469 L 1.667969 -5.117188 L 1.601562 -4.203125 L 1.691406 -2.914062 L 1.644531 -2.445312 Z M 6.25 -8.1875 L 5.871094 -8.386719 L 5.648438 -8.855469 L 5.582031 -11.34375 L 5.851562 -11.789062 L 6.296875 -12.011719 L 6.652344 -12.035156 L 7.875 -12.011719 L 8.898438 -11.878906 L 9.585938 -11.457031 L 9.808594 -11.121094 L 9.964844 -10.765625 L 10.011719 -10.121094 L 9.945312 -9.519531 L 9.765625 -9.074219 L 9.519531 -8.699219 L 9.253906 -8.429688 L 8.921875 -8.273438 L 7.183594 -8.121094 L 6.742188 -8.1875 Z M 6.25 -8.1875 "/></g></g></g><g fill="#ffffff" fill-opacity="1"><g transform="translate(367.181748, 344.278817)"><g><path d="M 4.269531 -0.691406 L 4.449219 -0.222656 L 4.917969 0 L 5.339844 -0.0429688 L 5.785156 0 L 6.207031 -0.0429688 L 7.585938 -0.0429688 L 8.03125 -0.222656 L 8.207031 -0.667969 L 8.1875 -1.089844 L 8.230469 -1.601562 L 8.207031 -2.492188 L 8.140625 -2.871094 L 8.207031 -3.335938 L 8.253906 -4.695312 L 8.207031 -5.09375 L 8.273438 -6.027344 L 8.1875 -10.457031 L 8.253906 -10.898438 L 8.207031 -11.390625 L 8.386719 -11.789062 L 8.875 -11.988281 L 9.253906 -12.011719 L 9.699219 -11.988281 L 10.097656 -12.035156 L 11.324219 -12.011719 L 11.835938 -12.210938 L 12.058594 -12.65625 L 12.011719 -13.125 L 12.058594 -14.949219 L 11.835938 -15.394531 L 11.390625 -15.617188 L 10.855469 -15.570312 L 10.5 -15.617188 L 10.078125 -15.617188 L 9.585938 -15.550781 L 9.144531 -15.550781 L 8.699219 -15.59375 L 8.253906 -15.59375 L 7.742188 -15.527344 L 1.113281 -15.570312 L 0.621094 -15.347656 L 0.402344 -14.902344 L 0.378906 -12.679688 L 0.621094 -12.191406 L 1.066406 -11.96875 L 1.644531 -12.035156 L 3.625 -12.011719 L 4.027344 -11.769531 L 4.25 -11.34375 L 4.316406 -8.898438 L 4.25 -8.207031 L 4.292969 -7.785156 L 4.25 -7.339844 L 4.25 -6.449219 L 4.316406 -5.804688 L 4.226562 -5.136719 L 4.25 -4.695312 L 4.226562 -4.226562 L 4.292969 -2.871094 L 4.25 -2.425781 Z M 4.269531 -0.691406 "/></g></g></g><g fill="#ffffff" fill-opacity="1"><g transform="translate(379.615685, 344.278817)"><g><path d="M 0.289062 -0.601562 L 0.402344 -0.132812 L 0.84375 -0.0234375 L 2.804688 -0.0234375 L 3.382812 0.0429688 L 3.894531 -0.179688 L 4.292969 -0.578125 L 4.671875 -1.335938 L 5.050781 -1.757812 L 5.582031 -1.980469 L 6.027344 -1.933594 L 7.273438 -1.957031 L 7.742188 -1.890625 L 8.253906 -1.957031 L 8.652344 -1.957031 L 9.121094 -1.914062 L 10.164062 -1.957031 L 10.898438 -1.710938 L 11.367188 -1.355469 L 11.476562 -0.957031 L 11.722656 -0.554688 L 12.101562 -0.199219 L 12.679688 0.0234375 L 13.082031 -0.0234375 L 13.859375 0.0429688 L 15.238281 0 L 15.636719 -0.132812 L 15.726562 -0.601562 L 15.59375 -1.15625 L 15.4375 -1.558594 L 15.148438 -1.933594 L 15.015625 -2.378906 L 14.792969 -2.714844 L 14.660156 -3.136719 L 14.28125 -3.9375 L 14.125 -4.359375 L 13.902344 -4.738281 L 13.589844 -5.5625 L 13.347656 -5.917969 L 13.167969 -6.363281 L 12.96875 -6.742188 L 12.8125 -7.183594 L 12.613281 -7.519531 L 12.480469 -7.964844 L 12.234375 -8.363281 L 12.058594 -8.742188 L 11.835938 -9.121094 L 11.722656 -9.542969 L 11.277344 -10.320312 L 11.144531 -10.746094 L 10.746094 -11.589844 L 10.632812 -11.945312 L 10.300781 -12.722656 L 9.855469 -13.546875 L 9.5 -14.390625 L 9.296875 -14.726562 L 9.164062 -15.148438 L 8.765625 -15.570312 L 8.007812 -15.773438 L 7.296875 -15.550781 L 6.875 -15.148438 L 6.742188 -14.75 L 5.785156 -12.746094 L 5.539062 -12.347656 L 4.292969 -9.542969 L 4.183594 -9.164062 L 3.9375 -8.765625 L 3.582031 -7.964844 L 3.246094 -7.386719 L 3.09375 -6.960938 L 2.78125 -6.382812 L 2.648438 -5.917969 L 2.445312 -5.5625 L 2.292969 -5.117188 L 1.667969 -3.960938 L 1.023438 -2.335938 L 0.757812 -1.980469 L 0.554688 -1.535156 Z M 7.164062 -5.496094 L 6.742188 -5.671875 L 6.671875 -6.117188 L 7.5625 -8.140625 L 7.761719 -8.496094 L 8.050781 -8.71875 L 8.320312 -8.542969 L 8.609375 -7.675781 L 8.855469 -7.296875 L 8.941406 -6.941406 L 9.164062 -6.496094 L 9.320312 -6.09375 L 9.277344 -5.695312 L 8.898438 -5.515625 Z M 7.164062 -5.496094 "/></g></g></g><g fill="#ffffff" fill-opacity="1"><g transform="translate(395.764235, 344.278817)"><g><path d="M 1.667969 -0.644531 L 1.867188 -0.246094 L 2.582031 0.0234375 L 10.457031 -0.0234375 L 11.078125 -0.246094 L 11.324219 -0.644531 L 11.277344 -1.132812 L 11.300781 -1.578125 L 11.34375 -1.980469 L 11.277344 -2.46875 L 11.34375 -2.890625 L 11.054688 -3.382812 L 10.699219 -3.605469 L 10.210938 -3.535156 L 6.296875 -3.582031 L 5.828125 -3.78125 L 5.695312 -4.269531 L 5.71875 -5.09375 L 5.648438 -5.515625 L 5.671875 -6.007812 L 5.628906 -6.449219 L 5.671875 -6.917969 L 5.648438 -8.03125 L 5.71875 -8.652344 L 5.648438 -9.144531 L 5.71875 -9.609375 L 5.648438 -13.082031 L 5.695312 -13.570312 L 5.648438 -14.660156 L 5.429688 -15.328125 L 4.847656 -15.59375 L 2.535156 -15.550781 L 1.890625 -15.304688 L 1.601562 -14.703125 L 1.734375 -13.546875 L 1.691406 -13.125 L 1.625 -12.65625 L 1.691406 -12.210938 L 1.734375 -11.789062 L 1.667969 -11.300781 L 1.691406 -10.878906 L 1.644531 -10.433594 L 1.710938 -9.964844 L 1.644531 -9.566406 L 1.691406 -9.121094 L 1.625 -8.699219 L 1.691406 -7.742188 L 1.625 -7.320312 L 1.691406 -6.429688 L 1.625 -5.984375 L 1.644531 -5.09375 L 1.691406 -4.695312 L 1.667969 -1.980469 L 1.710938 -1.535156 L 1.625 -1.113281 Z M 1.667969 -0.644531 "/></g></g></g></svg>