<svg xmlns="http://www.w3.org/2000/svg" xmlns:xlink="http://www.w3.org/1999/xlink" width="800" zoomAndPan="magnify" viewBox="0 0 600 374.999991" height="500" preserveAspectRatio="xMidYMid meet" version="1.0"><defs><g/><clipPath id="d2e947429e"><path d="M 191.207031 231 L 220 231 L 220 270 L 191.207031 270 Z M 191.207031 231 " clip-rule="nonzero"/></clipPath><clipPath id="7b0dcb2119"><path d="M 191.207031 68 L 220 68 L 220 237 L 191.207031 237 Z M 191.207031 68 " clip-rule="nonzero"/></clipPath><clipPath id="dcdc0a7b0c"><path d="M 191.207031 62 L 220 62 L 220 69 L 191.207031 69 Z M 191.207031 62 " clip-rule="nonzero"/></clipPath><clipPath id="1d28615eca"><path d="M 191.207031 37.5 L 220 37.5 L 220 63 L 191.207031 63 Z M 191.207031 37.5 " clip-rule="nonzero"/></clipPath><clipPath id="cfa0d33afd"><path d="M 191.207031 62 L 220 62 L 220 69 L 191.207031 69 Z M 191.207031 62 " clip-rule="nonzero"/></clipPath><clipPath id="8c6f0b9732"><path d="M 228 37.5 L 392 37.5 L 392 273 L 228 273 Z M 228 37.5 " clip-rule="nonzero"/></clipPath><clipPath id="b52e660e79"><path d="M 319 131 L 408.707031 131 L 408.707031 221 L 319 221 Z M 319 131 " clip-rule="nonzero"/></clipPath></defs><rect x="-60" width="720" fill="#ffffff" y="-37.499999" height="449.999989" fill-opacity="1"/><rect x="-60" width="720" fill="#5e1219" y="-37.499999" height="449.999989" fill-opacity="1"/><g clip-path="url(#d2e947429e)"><path fill="#ffc39c" d="M 214.375 232.980469 C 214.84375 231.589844 216.347656 230.847656 217.734375 231.316406 C 219.117188 231.789062 219.859375 233.292969 219.390625 234.683594 L 208.097656 267.742188 C 207.628906 269.132812 206.125 269.875 204.742188 269.40625 C 203.929688 269.128906 203.335938 268.5 203.082031 267.742188 L 191.789062 234.683594 C 191.320312 233.292969 192.0625 231.789062 193.449219 231.316406 C 194.832031 230.847656 196.339844 231.589844 196.808594 232.980469 Z M 214.375 232.980469 " fill-opacity="1" fill-rule="evenodd"/></g><path fill="#808080" d="M 212.242188 255.613281 L 208.097656 267.742188 C 207.628906 269.128906 206.125 269.875 204.742188 269.40625 C 203.929688 269.128906 203.335938 268.496094 203.082031 267.742188 L 198.9375 255.613281 Z M 212.242188 255.613281 " fill-opacity="1" fill-rule="evenodd"/><g clip-path="url(#7b0dcb2119)"><path fill="#ffc107" d="M 191.644531 233.832031 L 191.644531 68.050781 L 219.535156 68.050781 L 219.535156 233.832031 C 219.535156 235.296875 218.347656 236.488281 216.882812 236.488281 L 194.296875 236.488281 C 192.832031 236.488281 191.644531 235.296875 191.644531 233.832031 Z M 191.644531 233.832031 " fill-opacity="1" fill-rule="evenodd"/></g><g clip-path="url(#dcdc0a7b0c)"><path fill="#c4ced3" d="M 191.644531 62.734375 L 219.535156 62.734375 L 219.535156 68.050781 L 191.644531 68.050781 Z M 191.644531 62.734375 " fill-opacity="1" fill-rule="evenodd"/></g><g clip-path="url(#1d28615eca)"><path fill="#ef5350" d="M 191.644531 62.734375 L 191.644531 46.878906 C 191.644531 44.300781 192.695312 41.960938 194.386719 40.265625 C 196.078125 38.570312 198.417969 37.515625 200.988281 37.515625 L 210.191406 37.515625 C 212.765625 37.515625 215.101562 38.570312 216.792969 40.265625 C 218.484375 41.960938 219.535156 44.300781 219.535156 46.878906 L 219.535156 62.734375 Z M 191.644531 62.734375 " fill-opacity="1" fill-rule="evenodd"/></g><g clip-path="url(#cfa0d33afd)"><path fill="#c4ced3" d="M 191.644531 62.734375 L 219.535156 62.734375 L 219.535156 68.050781 L 191.644531 68.050781 Z M 191.644531 62.734375 " fill-opacity="1" fill-rule="evenodd"/></g><path fill="#ff9d05" d="M 208.0625 218.46875 C 208.0625 219.9375 206.875 221.128906 205.410156 221.128906 C 203.945312 221.128906 202.753906 219.9375 202.753906 218.46875 L 202.753906 176.222656 C 202.753906 174.753906 203.945312 173.566406 205.410156 173.566406 C 206.875 173.566406 208.0625 174.753906 208.0625 176.222656 Z M 208.0625 218.46875 " fill-opacity="1" fill-rule="evenodd"/><path fill="#ff9d05" d="M 208.0625 123 C 208.0625 124.46875 206.875 125.65625 205.410156 125.65625 C 203.945312 125.65625 202.753906 124.46875 202.753906 123 L 202.753906 80.753906 C 202.753906 79.285156 203.945312 78.09375 205.410156 78.09375 C 206.875 78.09375 208.0625 79.285156 208.0625 80.753906 Z M 208.0625 123 " fill-opacity="1" fill-rule="evenodd"/><path fill="#ff9d05" d="M 202.519531 165.574219 C 201.054688 165.574219 199.863281 164.386719 199.863281 162.917969 C 199.863281 161.449219 201.054688 160.257812 202.519531 160.257812 L 208.664062 160.257812 C 210.128906 160.257812 211.316406 161.449219 211.316406 162.917969 C 211.316406 164.386719 210.128906 165.574219 208.664062 165.574219 Z M 202.519531 165.574219 " fill-opacity="1" fill-rule="evenodd"/><path fill="#ff9d05" d="M 202.519531 152.269531 C 201.054688 152.269531 199.863281 151.078125 199.863281 149.609375 C 199.863281 148.144531 201.054688 146.953125 202.519531 146.953125 L 208.664062 146.953125 C 210.128906 146.953125 211.316406 148.144531 211.316406 149.609375 C 211.316406 151.078125 210.128906 152.269531 208.664062 152.269531 Z M 202.519531 152.269531 " fill-opacity="1" fill-rule="evenodd"/><path fill="#ff9d05" d="M 202.519531 138.964844 C 201.054688 138.964844 199.863281 137.773438 199.863281 136.304688 C 199.863281 134.835938 201.054688 133.648438 202.519531 133.648438 L 208.664062 133.648438 C 210.128906 133.648438 211.316406 134.835938 211.316406 136.304688 C 211.316406 137.773438 210.128906 138.964844 208.664062 138.964844 Z M 202.519531 138.964844 " fill-opacity="1" fill-rule="evenodd"/><g clip-path="url(#8c6f0b9732)"><path fill="#f0ebeb" d="M 231.183594 37.496094 L 388.914062 37.496094 C 390.332031 37.496094 391.480469 38.648438 391.480469 40.070312 L 391.480469 270.425781 C 391.480469 271.847656 390.332031 272.996094 388.914062 272.996094 L 231.183594 272.996094 C 229.765625 272.996094 228.617188 271.847656 228.617188 270.425781 L 228.617188 40.070312 C 228.617188 38.648438 229.765625 37.496094 231.183594 37.496094 Z M 231.183594 37.496094 " fill-opacity="1" fill-rule="nonzero"/></g><path fill="#808080" d="M 322.894531 61.996094 C 321.476562 61.996094 320.328125 60.847656 320.328125 59.425781 C 320.328125 58.007812 321.476562 56.855469 322.894531 56.855469 L 373.167969 56.855469 C 374.585938 56.855469 375.734375 58.007812 375.734375 59.425781 C 375.734375 60.847656 374.585938 61.996094 373.167969 61.996094 Z M 322.894531 61.996094 " fill-opacity="1" fill-rule="evenodd"/><path fill="#808080" d="M 322.894531 74.078125 C 321.476562 74.078125 320.328125 72.925781 320.328125 71.507812 C 320.328125 70.085938 321.476562 68.933594 322.894531 68.933594 L 373.167969 68.933594 C 374.585938 68.933594 375.734375 70.085938 375.734375 71.507812 C 375.734375 72.925781 374.585938 74.078125 373.167969 74.078125 Z M 322.894531 74.078125 " fill-opacity="1" fill-rule="evenodd"/><path fill="#808080" d="M 328.863281 86.15625 C 327.445312 86.15625 326.296875 85.007812 326.296875 83.585938 C 326.296875 82.167969 327.445312 81.015625 328.863281 81.015625 L 373.167969 81.015625 C 374.585938 81.015625 375.734375 82.167969 375.734375 83.585938 C 375.734375 85.007812 374.585938 86.15625 373.167969 86.15625 Z M 328.863281 86.15625 " fill-opacity="1" fill-rule="evenodd"/><path fill="#808080" d="M 328.863281 98.238281 C 327.445312 98.238281 326.296875 97.085938 326.296875 95.667969 C 326.296875 94.246094 327.445312 93.09375 328.863281 93.09375 L 373.167969 93.09375 C 374.585938 93.09375 375.734375 94.246094 375.734375 95.667969 C 375.734375 97.085938 374.585938 98.238281 373.167969 98.238281 Z M 328.863281 98.238281 " fill-opacity="1" fill-rule="evenodd"/><path fill="#808080" d="M 322.894531 110.316406 C 321.476562 110.316406 320.328125 109.167969 320.328125 107.746094 C 320.328125 106.328125 321.476562 105.175781 322.894531 105.175781 L 373.167969 105.175781 C 374.585938 105.175781 375.734375 106.328125 375.734375 107.746094 C 375.734375 109.167969 374.585938 110.316406 373.167969 110.316406 Z M 322.894531 110.316406 " fill-opacity="1" fill-rule="evenodd"/><path fill="#808080" d="M 322.894531 122.398438 C 321.476562 122.398438 320.328125 121.246094 320.328125 119.824219 C 320.328125 118.40625 321.476562 117.253906 322.894531 117.253906 L 373.167969 117.253906 C 374.585938 117.253906 375.734375 118.40625 375.734375 119.824219 C 375.734375 121.246094 374.585938 122.398438 373.167969 122.398438 Z M 322.894531 122.398438 " fill-opacity="1" fill-rule="evenodd"/><path fill="#808080" d="M 246.929688 141.742188 C 245.511719 141.742188 244.363281 140.589844 244.363281 139.167969 C 244.363281 137.75 245.511719 136.597656 246.929688 136.597656 L 269.796875 136.597656 C 271.214844 136.597656 272.363281 137.75 272.363281 139.167969 C 272.363281 140.589844 271.214844 141.742188 269.796875 141.742188 Z M 246.929688 141.742188 " fill-opacity="1" fill-rule="evenodd"/><path fill="#808080" d="M 246.929688 156.214844 C 245.511719 156.214844 244.363281 155.066406 244.363281 153.644531 C 244.363281 152.226562 245.511719 151.074219 246.929688 151.074219 L 269.796875 151.074219 C 271.214844 151.074219 272.363281 152.226562 272.363281 153.644531 C 272.363281 155.066406 271.214844 156.214844 269.796875 156.214844 Z M 246.929688 156.214844 " fill-opacity="1" fill-rule="evenodd"/><path fill="#808080" d="M 246.929688 170.691406 C 245.511719 170.691406 244.363281 169.542969 244.363281 168.121094 C 244.363281 166.703125 245.511719 165.550781 246.929688 165.550781 L 269.796875 165.550781 C 271.214844 165.550781 272.363281 166.703125 272.363281 168.121094 C 272.363281 169.542969 271.214844 170.691406 269.796875 170.691406 Z M 246.929688 170.691406 " fill-opacity="1" fill-rule="evenodd"/><path fill="#808080" d="M 246.929688 185.167969 C 245.511719 185.167969 244.363281 184.015625 244.363281 182.597656 C 244.363281 181.175781 245.511719 180.027344 246.929688 180.027344 L 269.796875 180.027344 C 271.214844 180.027344 272.363281 181.175781 272.363281 182.597656 C 272.363281 184.015625 271.214844 185.167969 269.796875 185.167969 Z M 246.929688 185.167969 " fill-opacity="1" fill-rule="evenodd"/><path fill="#808080" d="M 246.929688 199.644531 C 245.511719 199.644531 244.363281 198.492188 244.363281 197.074219 C 244.363281 195.652344 245.511719 194.503906 246.929688 194.503906 L 269.796875 194.503906 C 271.214844 194.503906 272.363281 195.652344 272.363281 197.074219 C 272.363281 198.492188 271.214844 199.644531 269.796875 199.644531 Z M 246.929688 199.644531 " fill-opacity="1" fill-rule="evenodd"/><path fill="#808080" d="M 246.929688 214.121094 C 245.511719 214.121094 244.363281 212.96875 244.363281 211.550781 C 244.363281 210.128906 245.511719 208.976562 246.929688 208.976562 L 269.796875 208.976562 C 271.214844 208.976562 272.363281 210.128906 272.363281 211.550781 C 272.363281 212.96875 271.214844 214.121094 269.796875 214.121094 Z M 246.929688 214.121094 " fill-opacity="1" fill-rule="evenodd"/><path fill="#808080" d="M 246.929688 228.597656 C 245.511719 228.597656 244.363281 227.445312 244.363281 226.027344 C 244.363281 224.605469 245.511719 223.453125 246.929688 223.453125 L 269.796875 223.453125 C 271.214844 223.453125 272.363281 224.605469 272.363281 226.027344 C 272.363281 227.445312 271.214844 228.597656 269.796875 228.597656 Z M 246.929688 228.597656 " fill-opacity="1" fill-rule="evenodd"/><path fill="#808080" d="M 246.929688 243.074219 C 245.511719 243.074219 244.363281 241.921875 244.363281 240.5 C 244.363281 239.082031 245.511719 237.929688 246.929688 237.929688 L 269.796875 237.929688 C 271.214844 237.929688 272.363281 239.082031 272.363281 240.5 C 272.363281 241.921875 271.214844 243.074219 269.796875 243.074219 Z M 246.929688 243.074219 " fill-opacity="1" fill-rule="evenodd"/><path fill="#808080" d="M 246.929688 257.546875 C 245.511719 257.546875 244.363281 256.398438 244.363281 254.976562 C 244.363281 253.558594 245.511719 252.40625 246.929688 252.40625 L 269.796875 252.40625 C 271.214844 252.40625 272.363281 253.558594 272.363281 254.976562 C 272.363281 256.398438 271.214844 257.546875 269.796875 257.546875 Z M 246.929688 257.546875 " fill-opacity="1" fill-rule="evenodd"/><path fill="#808080" d="M 282.679688 141.742188 C 281.261719 141.742188 280.113281 140.589844 280.113281 139.167969 C 280.113281 137.75 281.261719 136.597656 282.679688 136.597656 L 317.550781 136.597656 C 318.96875 136.597656 320.117188 137.75 320.117188 139.167969 C 320.117188 140.589844 318.96875 141.742188 317.550781 141.742188 Z M 282.679688 141.742188 " fill-opacity="1" fill-rule="evenodd"/><path fill="#808080" d="M 282.679688 156.214844 C 281.261719 156.214844 280.113281 155.066406 280.113281 153.644531 C 280.113281 152.226562 281.261719 151.074219 282.679688 151.074219 L 312.738281 151.074219 C 314.15625 151.074219 315.304688 152.226562 315.304688 153.644531 C 315.304688 155.066406 314.15625 156.214844 312.738281 156.214844 Z M 282.679688 156.214844 " fill-opacity="1" fill-rule="evenodd"/><path fill="#808080" d="M 282.679688 170.691406 C 281.261719 170.691406 280.113281 169.542969 280.113281 168.121094 C 280.113281 166.703125 281.261719 165.550781 282.679688 165.550781 L 307.925781 165.550781 C 309.34375 165.550781 310.492188 166.703125 310.492188 168.121094 C 310.492188 169.542969 309.34375 170.691406 307.925781 170.691406 Z M 282.679688 170.691406 " fill-opacity="1" fill-rule="evenodd"/><path fill="#808080" d="M 282.679688 185.167969 C 281.261719 185.167969 280.113281 184.015625 280.113281 182.597656 C 280.113281 181.175781 281.261719 180.027344 282.679688 180.027344 L 310.0625 180.027344 C 311.480469 180.027344 312.628906 181.175781 312.628906 182.597656 C 312.628906 184.015625 311.480469 185.167969 310.0625 185.167969 Z M 282.679688 185.167969 " fill-opacity="1" fill-rule="evenodd"/><path fill="#808080" d="M 282.679688 199.644531 C 281.261719 199.644531 280.113281 198.492188 280.113281 197.074219 C 280.113281 195.652344 281.261719 194.503906 282.679688 194.503906 L 306.855469 194.503906 C 308.273438 194.503906 309.421875 195.652344 309.421875 197.074219 C 309.421875 198.492188 308.273438 199.644531 306.855469 199.644531 Z M 282.679688 199.644531 " fill-opacity="1" fill-rule="evenodd"/><path fill="#808080" d="M 282.679688 214.121094 C 281.261719 214.121094 280.113281 212.96875 280.113281 211.550781 C 280.113281 210.128906 281.261719 208.976562 282.679688 208.976562 L 319.15625 208.976562 C 320.570312 208.976562 321.722656 210.128906 321.722656 211.550781 C 321.722656 212.96875 320.570312 214.121094 319.15625 214.121094 Z M 282.679688 214.121094 " fill-opacity="1" fill-rule="evenodd"/><path fill="#808080" d="M 282.679688 228.597656 C 281.261719 228.597656 280.113281 227.445312 280.113281 226.027344 C 280.113281 224.605469 281.261719 223.453125 282.679688 223.453125 L 341.617188 223.453125 C 343.03125 223.453125 344.183594 224.605469 344.183594 226.027344 C 344.183594 227.445312 343.03125 228.597656 341.617188 228.597656 Z M 282.679688 228.597656 " fill-opacity="1" fill-rule="evenodd"/><path fill="#808080" d="M 282.679688 243.074219 C 281.261719 243.074219 280.113281 241.921875 280.113281 240.5 C 280.113281 239.082031 281.261719 237.929688 282.679688 237.929688 L 373.167969 237.929688 C 374.585938 237.929688 375.734375 239.082031 375.734375 240.5 C 375.734375 241.921875 374.585938 243.074219 373.167969 243.074219 Z M 282.679688 243.074219 " fill-opacity="1" fill-rule="evenodd"/><path fill="#808080" d="M 282.679688 257.546875 C 281.261719 257.546875 280.113281 256.398438 280.113281 254.976562 C 280.113281 253.558594 281.261719 252.40625 282.679688 252.40625 L 373.167969 252.40625 C 374.585938 252.40625 375.734375 253.558594 375.734375 254.976562 C 375.734375 256.398438 374.585938 257.546875 373.167969 257.546875 Z M 282.679688 257.546875 " fill-opacity="1" fill-rule="evenodd"/><path fill="#ffc107" d="M 254.578125 67.089844 C 261.390625 60.265625 270.316406 56.855469 279.246094 56.855469 C 288.171875 56.855469 297.097656 60.265625 303.910156 67.089844 C 310.722656 73.910156 314.125 82.851562 314.125 91.792969 C 314.125 100.734375 310.722656 109.675781 303.910156 116.496094 C 297.097656 123.316406 288.171875 126.730469 279.246094 126.730469 C 270.316406 126.730469 261.390625 123.316406 254.578125 116.496094 C 247.769531 109.675781 244.363281 100.734375 244.363281 91.792969 C 244.363281 82.851562 247.769531 73.910156 254.578125 67.089844 Z M 254.578125 67.089844 " fill-opacity="1" fill-rule="evenodd"/><path fill="#ffffff" d="M 257.441406 69.957031 C 263.460938 63.925781 271.355469 60.910156 279.246094 60.910156 C 287.136719 60.910156 295.027344 63.925781 301.046875 69.957031 C 307.066406 75.984375 310.078125 83.890625 310.078125 91.792969 C 310.078125 99.695312 307.066406 107.597656 301.046875 113.628906 C 295.027344 119.65625 287.136719 122.671875 279.246094 122.671875 C 271.355469 122.671875 263.464844 119.65625 257.441406 113.628906 C 251.421875 107.597656 248.414062 99.695312 248.414062 91.792969 C 248.414062 83.890625 251.421875 75.984375 257.441406 69.957031 Z M 257.441406 69.957031 " fill-opacity="1" fill-rule="evenodd"/><path fill="#fab1a6" d="M 272.566406 97.964844 C 272.566406 97.28125 273.023438 96.726562 273.585938 96.726562 C 274.53125 96.726562 282.199219 96.726562 283.140625 96.726562 C 283.703125 96.726562 284.160156 97.28125 284.160156 97.964844 L 284.160156 109.390625 C 284.160156 110.074219 283.703125 110.628906 283.140625 110.628906 C 280.582031 110.628906 276.144531 110.628906 273.585938 110.628906 C 273.023438 110.628906 272.566406 110.074219 272.566406 109.390625 Z M 272.566406 97.964844 " fill-opacity="1" fill-rule="nonzero"/><path fill="#f9c5b8" d="M 288.683594 86.476562 C 289.316406 86.542969 289.796875 87.085938 289.785156 87.730469 C 289.628906 94.113281 286.777344 98.257812 283.148438 100.144531 C 281.640625 100.929688 279.996094 101.316406 278.347656 101.316406 C 276.703125 101.3125 275.058594 100.914062 273.550781 100.125 C 269.917969 98.222656 267.078125 94.0625 266.941406 87.664062 C 266.933594 87.210938 267.167969 86.808594 267.527344 86.585938 C 266.992188 84.507812 266.003906 78.839844 270.980469 78.230469 C 273.847656 77.882812 277.679688 77.4375 280.882812 77.445312 C 284.207031 77.457031 286.863281 77.980469 287.167969 79.644531 C 287.578125 81.859375 288.335938 85.050781 288.683594 86.476562 Z M 288.683594 86.476562 " fill-opacity="1" fill-rule="nonzero"/><path fill="#71c285" d="M 300.808594 113.867188 C 294.816406 119.738281 287.03125 122.671875 279.246094 122.671875 C 271.355469 122.671875 263.464844 119.65625 257.441406 113.628906 C 257.09375 113.277344 256.753906 112.921875 256.425781 112.558594 C 258.527344 108.753906 260.75 105.144531 261.816406 104.039062 C 263.808594 101.976562 266.304688 100.71875 269.34375 100.71875 L 272.566406 100.71875 C 273.035156 100.71875 273.441406 100.976562 273.652344 101.359375 L 278.363281 108.695312 L 283.121094 101.289062 C 283.355469 100.921875 283.753906 100.722656 284.160156 100.722656 L 284.160156 100.71875 L 287.382812 100.71875 C 290.542969 100.71875 293.078125 102.082031 295.078125 104.285156 C 296.390625 105.730469 298.824219 109.902344 300.808594 113.867188 Z M 300.808594 113.867188 " fill-opacity="1" fill-rule="evenodd"/><path fill="#5ca776" d="M 265.777344 119.582031 C 265.015625 119.210938 264.269531 118.808594 263.535156 118.371094 L 264.453125 114.792969 C 264.601562 114.125 265.261719 113.703125 265.925781 113.847656 C 266.59375 113.996094 267.015625 114.65625 266.871094 115.324219 Z M 265.777344 119.582031 " fill-opacity="1" fill-rule="evenodd"/><path fill="#5ca776" d="M 293.410156 119.230469 C 292.660156 119.617188 291.898438 119.972656 291.128906 120.296875 L 289.855469 115.324219 C 289.710938 114.65625 290.132812 113.996094 290.800781 113.847656 C 291.464844 113.703125 292.125 114.125 292.273438 114.792969 Z M 293.410156 119.230469 " fill-opacity="1" fill-rule="evenodd"/><path fill="#6e555e" d="M 289.148438 74.496094 C 294.492188 78.886719 289.972656 87.683594 289.65625 88.28125 C 289.460938 88.675781 289.058594 88.953125 288.585938 88.964844 C 287.90625 88.984375 287.339844 88.445312 287.320312 87.765625 C 287.175781 82.851562 286.179688 80.808594 285.578125 80.015625 C 280.550781 82.785156 276.59375 81.289062 273.730469 80.207031 C 272.605469 79.777344 271.734375 79.449219 271.316406 79.59375 C 271.242188 83.832031 269.554688 87.601562 269.3125 88.117188 C 269.230469 88.320312 269.089844 88.5 268.898438 88.640625 C 268.347656 89.042969 267.574219 88.917969 267.175781 88.363281 C 263.507812 83.296875 264.207031 78.199219 266.941406 74.242188 C 268.542969 71.929688 270.847656 70.027344 273.371094 68.78125 C 275.925781 67.523438 278.722656 66.921875 281.261719 67.234375 C 284.875 67.679688 287.941406 69.878906 289.148438 74.496094 Z M 289.148438 74.496094 " fill-opacity="1" fill-rule="evenodd"/><g clip-path="url(#b52e660e79)"><path fill="#71c285" d="M 332.914062 144.390625 C 341.585938 135.703125 352.953125 131.363281 364.316406 131.363281 C 375.683594 131.363281 387.050781 135.703125 395.722656 144.390625 C 404.394531 153.078125 408.730469 164.460938 408.730469 175.84375 C 408.730469 187.230469 404.394531 198.613281 395.722656 207.300781 C 387.050781 215.984375 375.683594 220.328125 364.316406 220.328125 C 352.953125 220.328125 341.585938 215.988281 332.914062 207.300781 C 324.238281 198.613281 319.902344 187.230469 319.902344 175.84375 C 319.902344 164.460938 324.238281 153.078125 332.914062 144.390625 Z M 332.914062 144.390625 " fill-opacity="1" fill-rule="evenodd"/></g><path fill="#66b47d" d="M 341.03125 152.523438 C 347.460938 146.082031 355.890625 142.863281 364.316406 142.863281 C 372.746094 142.863281 381.171875 146.082031 387.605469 152.523438 C 394.035156 158.964844 397.25 167.40625 397.25 175.84375 C 397.25 184.285156 394.035156 192.726562 387.605469 199.167969 C 381.171875 205.609375 372.746094 208.828125 364.316406 208.828125 L 364.316406 208.820312 C 355.882812 208.820312 347.453125 205.601562 341.03125 199.167969 C 334.601562 192.726562 331.386719 184.285156 331.386719 175.84375 C 331.386719 167.40625 334.601562 158.964844 341.03125 152.523438 Z M 341.03125 152.523438 " fill-opacity="1" fill-rule="evenodd"/><path fill="#ffffff" d="M 383.335938 169.53125 L 363.597656 189.304688 L 360.09375 192.8125 C 359.089844 193.816406 357.464844 193.816406 356.460938 192.8125 L 352.957031 189.304688 L 345.300781 181.632812 C 344.296875 180.628906 344.296875 179 345.300781 177.996094 L 352.308594 170.976562 C 353.308594 169.972656 354.933594 169.972656 355.9375 170.976562 L 358.277344 173.320312 L 372.699219 158.878906 C 373.703125 157.875 375.328125 157.875 376.328125 158.878906 L 383.335938 165.894531 C 384.339844 166.898438 384.339844 168.527344 383.335938 169.53125 Z M 383.335938 169.53125 " fill-opacity="1" fill-rule="nonzero"/><path fill="#5ca776" d="M 364.316406 142.863281 C 355.890625 142.863281 347.460938 146.082031 341.03125 152.523438 C 337.773438 155.785156 335.34375 159.558594 333.734375 163.585938 C 335.152344 161.113281 336.914062 158.785156 339.023438 156.671875 C 345.457031 150.234375 353.882812 147.011719 362.3125 147.011719 C 370.738281 147.011719 379.167969 150.234375 385.597656 156.671875 C 388.011719 159.089844 389.972656 161.789062 391.480469 164.664062 C 393.988281 169.449219 395.242188 174.722656 395.242188 179.996094 C 395.242188 184.164062 394.460938 188.328125 392.894531 192.253906 C 395.796875 187.1875 397.25 181.515625 397.25 175.84375 C 397.25 169.316406 395.324219 162.789062 391.480469 157.1875 C 390.351562 155.542969 389.058594 153.980469 387.601562 152.523438 C 381.171875 146.082031 372.746094 142.863281 364.316406 142.863281 Z M 364.316406 142.863281 " fill-opacity="1" fill-rule="evenodd"/><g fill="#ffffff" fill-opacity="1"><g transform="translate(177.433588, 331.647048)"><g><path d="M 9.613281 0.3125 L 11.746094 0.0976562 L 12.65625 -0.191406 L 14.789062 -1.152344 L 16.46875 -2.757812 L 16.777344 -3.1875 L 17.714844 -4.84375 L 17.882812 -5.296875 L 17.953125 -5.777344 L 18.097656 -6.160156 L 18.191406 -6.6875 L 18.3125 -8.367188 L 18.191406 -10.019531 L 18 -10.90625 L 17.808594 -11.410156 L 17.691406 -11.960938 L 17.257812 -12.753906 L 17.089844 -13.183594 L 16.777344 -13.589844 L 16.492188 -13.878906 L 16.179688 -14.308594 L 15.148438 -15.246094 L 13.925781 -16.011719 L 10.785156 -16.996094 L 9.660156 -17.019531 L 7.980469 -16.921875 L 7.503906 -16.828125 L 7.023438 -16.683594 L 6.589844 -16.492188 L 5.679688 -16.25 L 4.457031 -15.484375 L 4.121094 -15.195312 L 3.355469 -14.667969 L 2.707031 -13.949219 L 1.894531 -12.753906 L 1.679688 -12.34375 L 1.222656 -11.027344 L 1.03125 -9.996094 L 0.933594 -7.214844 L 1.199219 -5.703125 L 1.558594 -4.890625 L 1.703125 -4.386719 L 1.941406 -3.953125 L 3.066406 -2.421875 L 3.738281 -1.773438 L 4.050781 -1.414062 L 5.679688 -0.550781 L 6.136719 -0.359375 L 8.171875 0.238281 Z M 8.941406 -3.90625 L 8.460938 -4.074219 L 8.03125 -4.121094 L 7.214844 -4.554688 L 6.472656 -5.203125 L 6.230469 -5.535156 L 5.921875 -5.871094 L 5.464844 -7.214844 L 5.34375 -8.414062 L 5.371094 -9.132812 L 5.535156 -10.019531 L 5.679688 -10.449219 L 5.96875 -10.785156 L 6.183594 -11.195312 L 6.496094 -11.578125 L 6.855469 -11.890625 L 7.550781 -12.367188 L 7.980469 -12.585938 L 8.484375 -12.703125 L 9.589844 -12.800781 L 10.738281 -12.726562 L 12.007812 -12.175781 L 12.753906 -11.625 L 13.304688 -10.808594 L 13.496094 -10.378906 L 13.640625 -9.898438 L 13.808594 -9.46875 L 13.902344 -8.4375 L 13.757812 -7.238281 L 13.542969 -6.257812 L 13.28125 -5.898438 L 13.0625 -5.535156 L 12.777344 -5.105469 L 12.03125 -4.53125 L 11.601562 -4.339844 L 11.21875 -4.121094 L 10.785156 -4.074219 L 10.332031 -3.953125 Z M 8.941406 -3.90625 "/></g></g></g><g fill="#ffffff" fill-opacity="1"><g transform="translate(196.653379, 331.647048)"><g><path d="M 14.140625 -0.382812 L 14.835938 -0.0703125 L 15.460938 0.121094 L 16.011719 -0.144531 L 16.226562 -0.648438 L 16.347656 -7.167969 L 16.25 -7.839844 L 16.300781 -8.367188 L 16.203125 -11.242188 L 16.277344 -12.199219 L 16.226562 -12.65625 L 16.226562 -13.613281 L 16.324219 -14.09375 L 16.277344 -14.8125 L 16.324219 -16.058594 L 16.035156 -16.492188 L 15.507812 -16.730469 L 15.027344 -16.777344 L 14.574219 -16.777344 L 14.046875 -16.730469 L 13.542969 -16.804688 L 13.113281 -16.753906 L 12.632812 -16.777344 L 12.058594 -16.539062 L 11.816406 -16.035156 L 11.792969 -11.671875 L 11.890625 -11.171875 L 11.890625 -10.714844 L 11.792969 -10.210938 L 11.816406 -9.253906 L 11.699219 -8.867188 L 11.363281 -8.964844 L 10.308594 -10.042969 L 9.949219 -10.332031 L 9.109375 -11.195312 L 8.726562 -11.480469 L 8.460938 -11.816406 L 7.957031 -12.34375 L 7.214844 -12.96875 L 6.953125 -13.328125 L 6.496094 -13.640625 L 6.257812 -14 L 5.847656 -14.285156 L 5.535156 -14.695312 L 4.242188 -16.011719 L 3.285156 -16.660156 L 2.636719 -16.851562 L 2.0625 -16.5625 L 1.75 -16.109375 L 1.796875 -12.753906 L 1.75 -12.273438 L 1.820312 -11.289062 L 1.773438 -10.859375 L 1.796875 -10.355469 L 1.726562 -9.851562 L 1.820312 -6.425781 L 1.773438 -5.992188 L 1.773438 -5.535156 L 1.726562 -5.007812 L 1.726562 -4.554688 L 1.796875 -4.050781 L 1.773438 -3.066406 L 1.820312 -2.589844 L 1.75 -1.679688 L 1.820312 -1.199219 L 1.820312 -0.742188 L 2.039062 -0.214844 L 2.492188 0.046875 L 3.308594 0 L 4.507812 0.0703125 L 5.007812 0 L 5.5625 0.046875 L 6.039062 -0.191406 L 6.257812 -0.671875 L 6.183594 -1.152344 L 6.257812 -7.023438 L 6.160156 -7.527344 L 6.398438 -7.8125 L 6.710938 -7.742188 L 10.140625 -4.386719 L 10.523438 -4.074219 L 12.847656 -1.75 L 13.160156 -1.367188 L 13.542969 -1.054688 L 13.832031 -0.695312 Z M 14.140625 -0.382812 "/></g></g></g><g fill="#ffffff" fill-opacity="1"><g transform="translate(214.722855, 331.647048)"><g><path d="M 1.796875 -0.695312 L 2.011719 -0.261719 L 2.78125 0.0234375 L 11.265625 -0.0234375 L 11.9375 -0.261719 L 12.199219 -0.695312 L 12.152344 -1.222656 L 12.175781 -1.703125 L 12.226562 -2.132812 L 12.152344 -2.660156 L 12.226562 -3.117188 L 11.914062 -3.644531 L 11.53125 -3.882812 L 11.003906 -3.8125 L 6.785156 -3.859375 L 6.28125 -4.074219 L 6.136719 -4.601562 L 6.160156 -5.488281 L 6.089844 -5.945312 L 6.113281 -6.472656 L 6.0625 -6.953125 L 6.113281 -7.453125 L 6.089844 -8.652344 L 6.160156 -9.324219 L 6.089844 -9.851562 L 6.160156 -10.355469 L 6.089844 -14.09375 L 6.136719 -14.621094 L 6.089844 -15.796875 L 5.847656 -16.515625 L 5.226562 -16.804688 L 2.734375 -16.753906 L 2.039062 -16.492188 L 1.726562 -15.84375 L 1.871094 -14.597656 L 1.820312 -14.140625 L 1.75 -13.640625 L 1.820312 -13.160156 L 1.871094 -12.703125 L 1.796875 -12.175781 L 1.820312 -11.722656 L 1.773438 -11.242188 L 1.84375 -10.738281 L 1.773438 -10.308594 L 1.820312 -9.828125 L 1.75 -9.371094 L 1.820312 -8.339844 L 1.75 -7.886719 L 1.820312 -6.925781 L 1.75 -6.449219 L 1.773438 -5.488281 L 1.820312 -5.058594 L 1.796875 -2.132812 L 1.84375 -1.652344 L 1.75 -1.199219 Z M 1.796875 -0.695312 "/></g></g></g><g fill="#ffffff" fill-opacity="1"><g transform="translate(227.615927, 331.647048)"><g><path d="M 1.152344 -0.695312 L 1.390625 -0.191406 L 1.871094 -0.0234375 L 8.988281 0.0234375 L 9.445312 -0.214844 L 9.707031 -0.648438 L 9.707031 -1.175781 L 9.660156 -1.605469 L 9.730469 -3.066406 L 9.394531 -3.476562 L 7.789062 -3.980469 L 7.527344 -4.457031 L 7.574219 -6.425781 L 7.480469 -7.382812 L 7.574219 -8.390625 L 7.527344 -9.109375 L 7.574219 -9.851562 L 7.527344 -10.308594 L 7.574219 -10.785156 L 7.527344 -11.289062 L 7.527344 -12.296875 L 7.789062 -12.726562 L 8.246094 -12.992188 L 8.773438 -13.015625 L 9.226562 -13.28125 L 9.492188 -13.734375 L 9.492188 -15.148438 L 9.539062 -15.582031 L 9.492188 -16.058594 L 9.300781 -16.539062 L 8.535156 -16.753906 L 5.488281 -16.777344 L 4.960938 -16.730469 L 3.5 -16.753906 L 3.042969 -16.730469 L 2.109375 -16.777344 L 1.582031 -16.539062 L 1.316406 -16.035156 L 1.316406 -15.582031 L 1.269531 -15.171875 L 1.269531 -14.644531 L 1.316406 -14.167969 L 1.316406 -13.710938 L 1.558594 -13.253906 L 3.019531 -12.753906 L 3.332031 -12.320312 L 3.261719 -10.28125 L 3.285156 -9.875 L 3.355469 -9.324219 L 3.332031 -8.339844 L 3.285156 -7.863281 L 3.378906 -6.925781 L 3.261719 -6.449219 L 3.355469 -5.417969 L 3.308594 -4.480469 L 3.066406 -3.953125 L 1.484375 -3.453125 L 1.199219 -2.996094 L 1.152344 -2.539062 Z M 1.152344 -0.695312 "/></g></g></g><g fill="#ffffff" fill-opacity="1"><g transform="translate(238.495951, 331.647048)"><g><path d="M 14.140625 -0.382812 L 14.835938 -0.0703125 L 15.460938 0.121094 L 16.011719 -0.144531 L 16.226562 -0.648438 L 16.347656 -7.167969 L 16.25 -7.839844 L 16.300781 -8.367188 L 16.203125 -11.242188 L 16.277344 -12.199219 L 16.226562 -12.65625 L 16.226562 -13.613281 L 16.324219 -14.09375 L 16.277344 -14.8125 L 16.324219 -16.058594 L 16.035156 -16.492188 L 15.507812 -16.730469 L 15.027344 -16.777344 L 14.574219 -16.777344 L 14.046875 -16.730469 L 13.542969 -16.804688 L 13.113281 -16.753906 L 12.632812 -16.777344 L 12.058594 -16.539062 L 11.816406 -16.035156 L 11.792969 -11.671875 L 11.890625 -11.171875 L 11.890625 -10.714844 L 11.792969 -10.210938 L 11.816406 -9.253906 L 11.699219 -8.867188 L 11.363281 -8.964844 L 10.308594 -10.042969 L 9.949219 -10.332031 L 9.109375 -11.195312 L 8.726562 -11.480469 L 8.460938 -11.816406 L 7.957031 -12.34375 L 7.214844 -12.96875 L 6.953125 -13.328125 L 6.496094 -13.640625 L 6.257812 -14 L 5.847656 -14.285156 L 5.535156 -14.695312 L 4.242188 -16.011719 L 3.285156 -16.660156 L 2.636719 -16.851562 L 2.0625 -16.5625 L 1.75 -16.109375 L 1.796875 -12.753906 L 1.75 -12.273438 L 1.820312 -11.289062 L 1.773438 -10.859375 L 1.796875 -10.355469 L 1.726562 -9.851562 L 1.820312 -6.425781 L 1.773438 -5.992188 L 1.773438 -5.535156 L 1.726562 -5.007812 L 1.726562 -4.554688 L 1.796875 -4.050781 L 1.773438 -3.066406 L 1.820312 -2.589844 L 1.75 -1.679688 L 1.820312 -1.199219 L 1.820312 -0.742188 L 2.039062 -0.214844 L 2.492188 0.046875 L 3.308594 0 L 4.507812 0.0703125 L 5.007812 0 L 5.5625 0.046875 L 6.039062 -0.191406 L 6.257812 -0.671875 L 6.183594 -1.152344 L 6.257812 -7.023438 L 6.160156 -7.527344 L 6.398438 -7.8125 L 6.710938 -7.742188 L 10.140625 -4.386719 L 10.523438 -4.074219 L 12.847656 -1.75 L 13.160156 -1.367188 L 13.542969 -1.054688 L 13.832031 -0.695312 Z M 14.140625 -0.382812 "/></g></g></g><g fill="#ffffff" fill-opacity="1"><g transform="translate(256.565427, 331.647048)"><g><path d="M 1.726562 -0.695312 L 2.039062 -0.238281 L 2.492188 0.0234375 L 7.910156 -0.0234375 L 8.339844 0.046875 L 9.804688 -0.0234375 L 11.265625 0.0703125 L 11.722656 0.0234375 L 12.226562 -0.214844 L 12.441406 -0.671875 L 12.488281 -1.125 L 12.464844 -2.613281 L 12.511719 -3.066406 L 12.199219 -3.546875 L 11.480469 -3.789062 L 8.316406 -3.835938 L 7.863281 -3.761719 L 7.335938 -3.8125 L 6.808594 -3.761719 L 6.304688 -4.050781 L 6.089844 -4.792969 L 6.113281 -5.96875 L 6.328125 -6.472656 L 6.757812 -6.734375 L 7.695312 -6.734375 L 8.171875 -6.785156 L 9.445312 -6.710938 L 10.089844 -6.757812 L 10.59375 -6.710938 L 11.027344 -6.734375 L 11.503906 -7 L 11.746094 -7.453125 L 11.792969 -9.347656 L 11.746094 -9.828125 L 11.53125 -10.28125 L 11.121094 -10.546875 L 10.164062 -10.570312 L 9.683594 -10.523438 L 9.179688 -10.523438 L 8.628906 -10.570312 L 6.734375 -10.546875 L 6.328125 -10.808594 L 6.039062 -11.242188 L 5.992188 -11.984375 L 6.230469 -12.679688 L 6.976562 -12.894531 L 11.578125 -12.917969 L 12.082031 -13.183594 L 12.34375 -13.613281 L 12.296875 -14.597656 L 12.226562 -15.054688 L 12.25 -15.582031 L 12.320312 -16.035156 L 12.082031 -16.515625 L 11.578125 -16.730469 L 9.660156 -16.753906 L 9.226562 -16.707031 L 8.75 -16.777344 L 7.695312 -16.730469 L 7.214844 -16.777344 L 6.28125 -16.753906 L 5.847656 -16.804688 L 2.707031 -16.730469 L 2.011719 -16.5625 L 1.773438 -16.035156 L 1.820312 -15.078125 L 1.726562 -14.382812 L 1.820312 -13.160156 L 1.773438 -12.65625 L 1.820312 -12.226562 L 1.820312 -7.933594 L 1.75 -7.429688 L 1.820312 -6.496094 L 1.773438 -5.535156 L 1.84375 -5.035156 L 1.796875 -4.507812 L 1.820312 -4.050781 L 1.75 -3.621094 L 1.796875 -3.066406 L 1.796875 -2.589844 L 1.84375 -1.652344 L 1.820312 -1.175781 Z M 1.726562 -0.695312 "/></g></g></g><g fill="#ffffff" fill-opacity="1"><g transform="translate(270.297272, 331.647048)"><g/></g></g><g fill="#ffffff" fill-opacity="1"><g transform="translate(276.791736, 331.647048)"><g><path d="M 1.726562 -0.695312 L 2.039062 -0.238281 L 2.492188 0.0234375 L 7.910156 -0.0234375 L 8.339844 0.046875 L 9.804688 -0.0234375 L 11.265625 0.0703125 L 11.722656 0.0234375 L 12.226562 -0.214844 L 12.441406 -0.671875 L 12.488281 -1.125 L 12.464844 -2.613281 L 12.511719 -3.066406 L 12.199219 -3.546875 L 11.480469 -3.789062 L 8.316406 -3.835938 L 7.863281 -3.761719 L 7.335938 -3.8125 L 6.808594 -3.761719 L 6.304688 -4.050781 L 6.089844 -4.792969 L 6.113281 -5.96875 L 6.328125 -6.472656 L 6.757812 -6.734375 L 7.695312 -6.734375 L 8.171875 -6.785156 L 9.445312 -6.710938 L 10.089844 -6.757812 L 10.59375 -6.710938 L 11.027344 -6.734375 L 11.503906 -7 L 11.746094 -7.453125 L 11.792969 -9.347656 L 11.746094 -9.828125 L 11.53125 -10.28125 L 11.121094 -10.546875 L 10.164062 -10.570312 L 9.683594 -10.523438 L 9.179688 -10.523438 L 8.628906 -10.570312 L 6.734375 -10.546875 L 6.328125 -10.808594 L 6.039062 -11.242188 L 5.992188 -11.984375 L 6.230469 -12.679688 L 6.976562 -12.894531 L 11.578125 -12.917969 L 12.082031 -13.183594 L 12.34375 -13.613281 L 12.296875 -14.597656 L 12.226562 -15.054688 L 12.25 -15.582031 L 12.320312 -16.035156 L 12.082031 -16.515625 L 11.578125 -16.730469 L 9.660156 -16.753906 L 9.226562 -16.707031 L 8.75 -16.777344 L 7.695312 -16.730469 L 7.214844 -16.777344 L 6.28125 -16.753906 L 5.847656 -16.804688 L 2.707031 -16.730469 L 2.011719 -16.5625 L 1.773438 -16.035156 L 1.820312 -15.078125 L 1.726562 -14.382812 L 1.820312 -13.160156 L 1.773438 -12.65625 L 1.820312 -12.226562 L 1.820312 -7.933594 L 1.75 -7.429688 L 1.820312 -6.496094 L 1.773438 -5.535156 L 1.84375 -5.035156 L 1.796875 -4.507812 L 1.820312 -4.050781 L 1.75 -3.621094 L 1.796875 -3.066406 L 1.796875 -2.589844 L 1.84375 -1.652344 L 1.820312 -1.175781 Z M 1.726562 -0.695312 "/></g></g></g><g fill="#ffffff" fill-opacity="1"><g transform="translate(290.523581, 331.647048)"><g><path d="M 14.140625 -0.382812 L 14.835938 -0.0703125 L 15.460938 0.121094 L 16.011719 -0.144531 L 16.226562 -0.648438 L 16.347656 -7.167969 L 16.25 -7.839844 L 16.300781 -8.367188 L 16.203125 -11.242188 L 16.277344 -12.199219 L 16.226562 -12.65625 L 16.226562 -13.613281 L 16.324219 -14.09375 L 16.277344 -14.8125 L 16.324219 -16.058594 L 16.035156 -16.492188 L 15.507812 -16.730469 L 15.027344 -16.777344 L 14.574219 -16.777344 L 14.046875 -16.730469 L 13.542969 -16.804688 L 13.113281 -16.753906 L 12.632812 -16.777344 L 12.058594 -16.539062 L 11.816406 -16.035156 L 11.792969 -11.671875 L 11.890625 -11.171875 L 11.890625 -10.714844 L 11.792969 -10.210938 L 11.816406 -9.253906 L 11.699219 -8.867188 L 11.363281 -8.964844 L 10.308594 -10.042969 L 9.949219 -10.332031 L 9.109375 -11.195312 L 8.726562 -11.480469 L 8.460938 -11.816406 L 7.957031 -12.34375 L 7.214844 -12.96875 L 6.953125 -13.328125 L 6.496094 -13.640625 L 6.257812 -14 L 5.847656 -14.285156 L 5.535156 -14.695312 L 4.242188 -16.011719 L 3.285156 -16.660156 L 2.636719 -16.851562 L 2.0625 -16.5625 L 1.75 -16.109375 L 1.796875 -12.753906 L 1.75 -12.273438 L 1.820312 -11.289062 L 1.773438 -10.859375 L 1.796875 -10.355469 L 1.726562 -9.851562 L 1.820312 -6.425781 L 1.773438 -5.992188 L 1.773438 -5.535156 L 1.726562 -5.007812 L 1.726562 -4.554688 L 1.796875 -4.050781 L 1.773438 -3.066406 L 1.820312 -2.589844 L 1.75 -1.679688 L 1.820312 -1.199219 L 1.820312 -0.742188 L 2.039062 -0.214844 L 2.492188 0.046875 L 3.308594 0 L 4.507812 0.0703125 L 5.007812 0 L 5.5625 0.046875 L 6.039062 -0.191406 L 6.257812 -0.671875 L 6.183594 -1.152344 L 6.257812 -7.023438 L 6.160156 -7.527344 L 6.398438 -7.8125 L 6.710938 -7.742188 L 10.140625 -4.386719 L 10.523438 -4.074219 L 12.847656 -1.75 L 13.160156 -1.367188 L 13.542969 -1.054688 L 13.832031 -0.695312 Z M 14.140625 -0.382812 "/></g></g></g><g fill="#ffffff" fill-opacity="1"><g transform="translate(308.593057, 331.647048)"><g><path d="M 1.84375 -0.765625 L 2.011719 -0.238281 L 2.492188 0 L 2.949219 0.0234375 L 3.929688 -0.046875 L 4.433594 0 L 5.152344 0 L 5.898438 -0.238281 L 6.0625 -0.695312 L 6.113281 -1.199219 L 6.015625 -1.703125 L 6.089844 -2.734375 L 6.039062 -4.21875 L 6.257812 -4.699219 L 6.734375 -4.9375 L 7.167969 -4.9375 L 7.597656 -4.960938 L 8.199219 -4.769531 L 8.582031 -4.363281 L 9.203125 -3.523438 L 9.371094 -3.066406 L 10.042969 -1.871094 L 10.355469 -1.414062 L 10.570312 -1.007812 L 10.859375 -0.625 L 11.335938 -0.191406 L 11.9375 -0.046875 L 12.800781 0 L 13.328125 -0.046875 L 13.808594 0 L 14.765625 0 L 15.292969 -0.046875 L 15.796875 -0.167969 L 15.890625 -0.671875 L 15.582031 -1.269531 L 14.8125 -2.445312 L 14.597656 -2.851562 L 14.308594 -3.285156 L 14.070312 -3.714844 L 13.757812 -4.097656 L 13.039062 -5.34375 L 12.96875 -5.921875 L 13.230469 -6.425781 L 13.902344 -7.070312 L 14.191406 -7.480469 L 14.359375 -7.933594 L 14.621094 -8.367188 L 14.789062 -8.773438 L 15.054688 -9.683594 L 15.078125 -11.578125 L 14.957031 -12.03125 L 14.886719 -12.488281 L 14.765625 -12.96875 L 14.117188 -14.285156 L 13.78125 -14.644531 L 13.566406 -15.003906 L 12.367188 -15.917969 L 11.53125 -16.347656 L 9.539062 -16.753906 L 8.941406 -16.804688 L 8.246094 -16.777344 L 7.71875 -16.804688 L 7.238281 -16.753906 L 6.710938 -16.804688 L 6.304688 -16.753906 L 4.867188 -16.804688 L 4.410156 -16.730469 L 3.425781 -16.828125 L 2.972656 -16.753906 L 2.445312 -16.777344 L 1.988281 -16.5625 L 1.796875 -16.058594 L 1.726562 -9.347656 L 1.796875 -8.652344 L 1.796875 -7.453125 L 1.75 -6.953125 L 1.726562 -6.039062 L 1.796875 -5.511719 L 1.726562 -4.53125 L 1.820312 -3.140625 L 1.773438 -2.636719 Z M 6.734375 -8.820312 L 6.328125 -9.035156 L 6.089844 -9.539062 L 6.015625 -12.226562 L 6.304688 -12.703125 L 6.785156 -12.945312 L 7.167969 -12.96875 L 8.484375 -12.945312 L 9.589844 -12.800781 L 10.332031 -12.34375 L 10.570312 -11.984375 L 10.738281 -11.601562 L 10.785156 -10.90625 L 10.714844 -10.257812 L 10.523438 -9.78125 L 10.257812 -9.371094 L 9.972656 -9.085938 L 9.613281 -8.917969 L 7.742188 -8.75 L 7.261719 -8.820312 Z M 6.734375 -8.820312 "/></g></g></g><g fill="#ffffff" fill-opacity="1"><g transform="translate(325.200676, 331.647048)"><g><path d="M 8.964844 0.289062 L 10.308594 0.261719 L 11.746094 0.0703125 L 13.542969 -0.527344 L 14.335938 -0.957031 L 14.695312 -1.246094 L 15.148438 -1.460938 L 15.820312 -2.039062 L 16.132812 -2.46875 L 16.46875 -2.804688 L 17.523438 -4.410156 L 17.882812 -5.320312 L 18.074219 -6.230469 L 18.097656 -6.664062 L 18.21875 -7.144531 L 18.242188 -7.644531 L 18.335938 -8.339844 L 18.265625 -9.539062 L 18.097656 -10.523438 L 17.5 -12.320312 L 17.042969 -13.207031 L 16.515625 -13.925781 L 15.84375 -14.667969 L 15.148438 -15.269531 L 14.597656 -15.652344 L 13.878906 -15.964844 L 13.519531 -16.226562 L 11.671875 -16.804688 L 10.28125 -17.042969 L 9.636719 -17.066406 L 7.09375 -16.707031 L 5.296875 -16.035156 L 4.9375 -15.773438 L 4.507812 -15.554688 L 3.691406 -14.957031 L 2.515625 -13.589844 L 1.773438 -12.320312 L 1.414062 -11.410156 L 1.007812 -9.5625 L 0.933594 -7.621094 L 1.007812 -7.117188 L 1.125 -6.6875 L 1.175781 -6.230469 L 1.390625 -5.320312 L 2.492188 -3.140625 L 2.78125 -2.851562 L 3.09375 -2.46875 L 3.453125 -2.132812 L 3.714844 -1.820312 L 4.507812 -1.199219 L 6.375 -0.238281 L 7.070312 0 L 7.597656 0.046875 L 8.460938 0.238281 Z M 10.308594 -3.953125 L 8.988281 -3.953125 L 8.460938 -4.027344 L 7.597656 -4.386719 L 7.214844 -4.601562 L 6.566406 -5.128906 L 6.257812 -5.464844 L 5.921875 -5.921875 L 5.800781 -6.304688 L 5.585938 -6.734375 L 5.394531 -7.621094 L 5.394531 -9.085938 L 5.511719 -9.515625 L 5.585938 -9.972656 L 5.777344 -10.402344 L 5.921875 -10.835938 L 6.496094 -11.601562 L 7.695312 -12.417969 L 8.007812 -12.535156 L 8.941406 -12.777344 L 9.613281 -12.824219 L 10.761719 -12.679688 L 11.195312 -12.585938 L 11.625 -12.390625 L 12.367188 -11.863281 L 13.304688 -10.882812 L 13.589844 -9.972656 L 13.808594 -9.515625 L 13.878906 -9.085938 L 13.832031 -7.621094 L 13.640625 -6.734375 L 13.472656 -6.304688 L 13.207031 -5.871094 L 13.0625 -5.511719 L 12.726562 -5.128906 L 11.578125 -4.339844 L 11.144531 -4.21875 L 10.785156 -4.050781 Z M 10.308594 -3.953125 "/></g></g></g><g fill="#ffffff" fill-opacity="1"><g transform="translate(344.420467, 331.647048)"><g><path d="M 1.796875 -0.695312 L 2.011719 -0.261719 L 2.78125 0.0234375 L 11.265625 -0.0234375 L 11.9375 -0.261719 L 12.199219 -0.695312 L 12.152344 -1.222656 L 12.175781 -1.703125 L 12.226562 -2.132812 L 12.152344 -2.660156 L 12.226562 -3.117188 L 11.914062 -3.644531 L 11.53125 -3.882812 L 11.003906 -3.8125 L 6.785156 -3.859375 L 6.28125 -4.074219 L 6.136719 -4.601562 L 6.160156 -5.488281 L 6.089844 -5.945312 L 6.113281 -6.472656 L 6.0625 -6.953125 L 6.113281 -7.453125 L 6.089844 -8.652344 L 6.160156 -9.324219 L 6.089844 -9.851562 L 6.160156 -10.355469 L 6.089844 -14.09375 L 6.136719 -14.621094 L 6.089844 -15.796875 L 5.847656 -16.515625 L 5.226562 -16.804688 L 2.734375 -16.753906 L 2.039062 -16.492188 L 1.726562 -15.84375 L 1.871094 -14.597656 L 1.820312 -14.140625 L 1.75 -13.640625 L 1.820312 -13.160156 L 1.871094 -12.703125 L 1.796875 -12.175781 L 1.820312 -11.722656 L 1.773438 -11.242188 L 1.84375 -10.738281 L 1.773438 -10.308594 L 1.820312 -9.828125 L 1.75 -9.371094 L 1.820312 -8.339844 L 1.75 -7.886719 L 1.820312 -6.925781 L 1.75 -6.449219 L 1.773438 -5.488281 L 1.820312 -5.058594 L 1.796875 -2.132812 L 1.84375 -1.652344 L 1.75 -1.199219 Z M 1.796875 -0.695312 "/></g></g></g><g fill="#ffffff" fill-opacity="1"><g transform="translate(357.31354, 331.647048)"><g><path d="M 1.773438 -0.695312 L 1.988281 -0.261719 L 2.566406 0 L 5.203125 -0.046875 L 5.921875 -0.261719 L 6.183594 -0.648438 L 6.230469 -1.101562 L 6.207031 -1.605469 L 6.136719 -2.109375 L 6.207031 -5.34375 L 6.113281 -6.734375 L 6.328125 -7.070312 L 6.6875 -6.976562 L 7.285156 -6.230469 L 8.628906 -4.960938 L 8.941406 -4.554688 L 9.730469 -3.90625 L 10.28125 -3.90625 L 10.691406 -4.195312 L 12.703125 -6.230469 L 13.015625 -6.640625 L 13.351562 -6.976562 L 13.640625 -7.023438 L 13.832031 -6.734375 L 13.902344 -6.257812 L 13.832031 -5.800781 L 13.855469 -5.371094 L 13.832031 -4.890625 L 13.902344 -4.003906 L 13.832031 -0.695312 L 14.070312 -0.191406 L 14.597656 0 L 17.472656 0.0234375 L 17.929688 -0.261719 L 18.191406 -0.765625 L 18.265625 -1.246094 L 18.167969 -4.121094 L 18.21875 -4.578125 L 18.167969 -5.511719 L 18.242188 -5.992188 L 18.21875 -6.472656 L 18.265625 -6.976562 L 18.21875 -7.453125 L 18.289062 -7.886719 L 18.21875 -14.667969 L 18.265625 -15.171875 L 18.21875 -15.582031 L 18.242188 -16.082031 L 17.976562 -16.539062 L 17.5 -16.828125 L 16.777344 -16.609375 L 16.179688 -16.277344 L 15.628906 -15.605469 L 14.261719 -14.191406 L 14.046875 -13.832031 L 10.5 -10.066406 L 9.972656 -9.898438 L 9.539062 -10.042969 L 9.226562 -10.355469 L 8.941406 -10.761719 L 8.558594 -11.074219 L 8.269531 -11.457031 L 6.617188 -13.160156 L 6.039062 -13.878906 L 5.632812 -14.238281 L 5.320312 -14.574219 L 5.058594 -14.933594 L 4.722656 -15.246094 L 4.457031 -15.582031 L 3.929688 -16.132812 L 3.234375 -16.636719 L 2.539062 -16.828125 L 2.0625 -16.5625 L 1.796875 -16.082031 L 1.75 -15.582031 L 1.820312 -5.007812 L 1.726562 -4.554688 L 1.820312 -1.152344 Z M 1.773438 -0.695312 "/></g></g></g><g fill="#ffffff" fill-opacity="1"><g transform="translate(377.348126, 331.647048)"><g><path d="M 1.726562 -0.695312 L 2.039062 -0.238281 L 2.492188 0.0234375 L 7.910156 -0.0234375 L 8.339844 0.046875 L 9.804688 -0.0234375 L 11.265625 0.0703125 L 11.722656 0.0234375 L 12.226562 -0.214844 L 12.441406 -0.671875 L 12.488281 -1.125 L 12.464844 -2.613281 L 12.511719 -3.066406 L 12.199219 -3.546875 L 11.480469 -3.789062 L 8.316406 -3.835938 L 7.863281 -3.761719 L 7.335938 -3.8125 L 6.808594 -3.761719 L 6.304688 -4.050781 L 6.089844 -4.792969 L 6.113281 -5.96875 L 6.328125 -6.472656 L 6.757812 -6.734375 L 7.695312 -6.734375 L 8.171875 -6.785156 L 9.445312 -6.710938 L 10.089844 -6.757812 L 10.59375 -6.710938 L 11.027344 -6.734375 L 11.503906 -7 L 11.746094 -7.453125 L 11.792969 -9.347656 L 11.746094 -9.828125 L 11.53125 -10.28125 L 11.121094 -10.546875 L 10.164062 -10.570312 L 9.683594 -10.523438 L 9.179688 -10.523438 L 8.628906 -10.570312 L 6.734375 -10.546875 L 6.328125 -10.808594 L 6.039062 -11.242188 L 5.992188 -11.984375 L 6.230469 -12.679688 L 6.976562 -12.894531 L 11.578125 -12.917969 L 12.082031 -13.183594 L 12.34375 -13.613281 L 12.296875 -14.597656 L 12.226562 -15.054688 L 12.25 -15.582031 L 12.320312 -16.035156 L 12.082031 -16.515625 L 11.578125 -16.730469 L 9.660156 -16.753906 L 9.226562 -16.707031 L 8.75 -16.777344 L 7.695312 -16.730469 L 7.214844 -16.777344 L 6.28125 -16.753906 L 5.847656 -16.804688 L 2.707031 -16.730469 L 2.011719 -16.5625 L 1.773438 -16.035156 L 1.820312 -15.078125 L 1.726562 -14.382812 L 1.820312 -13.160156 L 1.773438 -12.65625 L 1.820312 -12.226562 L 1.820312 -7.933594 L 1.75 -7.429688 L 1.820312 -6.496094 L 1.773438 -5.535156 L 1.84375 -5.035156 L 1.796875 -4.507812 L 1.820312 -4.050781 L 1.75 -3.621094 L 1.796875 -3.066406 L 1.796875 -2.589844 L 1.84375 -1.652344 L 1.820312 -1.175781 Z M 1.726562 -0.695312 "/></g></g></g><g fill="#ffffff" fill-opacity="1"><g transform="translate(391.079983, 331.647048)"><g><path d="M 14.140625 -0.382812 L 14.835938 -0.0703125 L 15.460938 0.121094 L 16.011719 -0.144531 L 16.226562 -0.648438 L 16.347656 -7.167969 L 16.25 -7.839844 L 16.300781 -8.367188 L 16.203125 -11.242188 L 16.277344 -12.199219 L 16.226562 -12.65625 L 16.226562 -13.613281 L 16.324219 -14.09375 L 16.277344 -14.8125 L 16.324219 -16.058594 L 16.035156 -16.492188 L 15.507812 -16.730469 L 15.027344 -16.777344 L 14.574219 -16.777344 L 14.046875 -16.730469 L 13.542969 -16.804688 L 13.113281 -16.753906 L 12.632812 -16.777344 L 12.058594 -16.539062 L 11.816406 -16.035156 L 11.792969 -11.671875 L 11.890625 -11.171875 L 11.890625 -10.714844 L 11.792969 -10.210938 L 11.816406 -9.253906 L 11.699219 -8.867188 L 11.363281 -8.964844 L 10.308594 -10.042969 L 9.949219 -10.332031 L 9.109375 -11.195312 L 8.726562 -11.480469 L 8.460938 -11.816406 L 7.957031 -12.34375 L 7.214844 -12.96875 L 6.953125 -13.328125 L 6.496094 -13.640625 L 6.257812 -14 L 5.847656 -14.285156 L 5.535156 -14.695312 L 4.242188 -16.011719 L 3.285156 -16.660156 L 2.636719 -16.851562 L 2.0625 -16.5625 L 1.75 -16.109375 L 1.796875 -12.753906 L 1.75 -12.273438 L 1.820312 -11.289062 L 1.773438 -10.859375 L 1.796875 -10.355469 L 1.726562 -9.851562 L 1.820312 -6.425781 L 1.773438 -5.992188 L 1.773438 -5.535156 L 1.726562 -5.007812 L 1.726562 -4.554688 L 1.796875 -4.050781 L 1.773438 -3.066406 L 1.820312 -2.589844 L 1.75 -1.679688 L 1.820312 -1.199219 L 1.820312 -0.742188 L 2.039062 -0.214844 L 2.492188 0.046875 L 3.308594 0 L 4.507812 0.0703125 L 5.007812 0 L 5.5625 0.046875 L 6.039062 -0.191406 L 6.257812 -0.671875 L 6.183594 -1.152344 L 6.257812 -7.023438 L 6.160156 -7.527344 L 6.398438 -7.8125 L 6.710938 -7.742188 L 10.140625 -4.386719 L 10.523438 -4.074219 L 12.847656 -1.75 L 13.160156 -1.367188 L 13.542969 -1.054688 L 13.832031 -0.695312 Z M 14.140625 -0.382812 "/></g></g></g><g fill="#ffffff" fill-opacity="1"><g transform="translate(409.14947, 331.647048)"><g><path d="M 4.601562 -0.742188 L 4.792969 -0.238281 L 5.296875 0 L 5.753906 -0.046875 L 6.230469 0 L 6.6875 -0.046875 L 8.171875 -0.046875 L 8.652344 -0.238281 L 8.84375 -0.71875 L 8.820312 -1.175781 L 8.867188 -1.726562 L 8.84375 -2.683594 L 8.773438 -3.09375 L 8.84375 -3.59375 L 8.894531 -5.058594 L 8.84375 -5.488281 L 8.917969 -6.496094 L 8.820312 -11.265625 L 8.894531 -11.746094 L 8.84375 -12.273438 L 9.035156 -12.703125 L 9.5625 -12.917969 L 9.972656 -12.945312 L 10.449219 -12.917969 L 10.882812 -12.96875 L 12.199219 -12.945312 L 12.753906 -13.160156 L 12.992188 -13.640625 L 12.945312 -14.140625 L 12.992188 -16.109375 L 12.753906 -16.585938 L 12.273438 -16.828125 L 11.699219 -16.777344 L 11.3125 -16.828125 L 10.859375 -16.828125 L 10.332031 -16.753906 L 9.851562 -16.753906 L 9.371094 -16.804688 L 8.894531 -16.804688 L 8.339844 -16.730469 L 1.199219 -16.777344 L 0.671875 -16.539062 L 0.429688 -16.058594 L 0.40625 -13.664062 L 0.671875 -13.136719 L 1.152344 -12.894531 L 1.773438 -12.96875 L 3.90625 -12.945312 L 4.339844 -12.679688 L 4.578125 -12.226562 L 4.648438 -9.589844 L 4.578125 -8.84375 L 4.625 -8.390625 L 4.578125 -7.910156 L 4.578125 -6.953125 L 4.648438 -6.257812 L 4.554688 -5.535156 L 4.578125 -5.058594 L 4.554688 -4.554688 L 4.625 -3.09375 L 4.578125 -2.613281 Z M 4.601562 -0.742188 "/></g></g></g></svg>